%
M48
M72
T01C0.01220
T02C0.01378
T03C0.01575
T04C0.01969
T05C0.02362
T06C0.03150
T07C0.03200
T08C0.03600
T09C0.04000
T10C0.04700
T11C0.05512
T12C0.08661
T13C0.09100
T14C0.11024
%
T01
X169184Y108776
X188876Y108793
X202571Y108932
X187320Y123704
X186942Y127730
X191013Y132658
X175257Y158523
X175268Y197307
X228154Y79369
X233099Y79208
T02
X225058Y83110
T03
X86750Y92026
X98133Y118266
X117613Y118215
X137134Y139802
X146886Y135133
X154885Y122102
X151139Y118430
X169229Y99366
X169439Y94036
X182810Y84202
X187028Y99366
X204531Y93951
X213953Y110879
X216750Y122026
X216750Y127026
X216750Y132026
X216750Y137026
X221750Y137026
X226750Y137026
X231750Y137026
X236750Y137026
X236750Y132026
X231750Y132026
X226750Y132026
X221750Y132026
X221750Y127026
X226750Y127026
X231750Y127026
X236750Y127026
X236750Y122026
X236016Y114537
X238529Y100648
X236151Y97913
X237383Y94056
X225881Y93951
X239775Y82660
X243152Y80530
X239679Y76912
X230833Y66658
X225495Y72069
X220093Y69316
X218089Y72310
X220556Y55038
X205098Y39329
X242481Y38023
X266544Y51798
X270491Y55401
X275425Y69663
X285858Y59522
X289713Y59848
X277314Y89552
X291048Y95709
X308956Y93001
X318104Y93073
X309479Y120288
X288002Y122135
X269512Y130736
X268975Y136375
X261934Y123782
X287436Y141732
X258930Y170322
X250897Y170268
X244605Y170394
X244185Y180358
X254862Y181527
X226845Y195150
X226573Y199894
X184916Y194943
X184958Y189902
X184958Y184485
X183262Y169419
X177658Y162569
X187816Y155531
X194480Y151336
X191880Y144494
X185319Y146135
X175605Y143122
X173175Y147825
X190865Y137389
X202202Y131733
X201713Y126995
X204446Y140293
X226478Y155508
X250225Y98647
X251583Y64206
X244287Y60098
X149287Y42491
X69600Y172475
X96257Y157035
X95235Y145159
X109572Y145076
X148649Y200183
X135578Y222903
X124166Y231722
X366436Y152282
X381562Y182464
T04
X326576Y29070
X309240Y30110
X300591Y28904
X304922Y46764
X296286Y46810
X313583Y46672
X322245Y45633
X326585Y63229
X322261Y64089
X313598Y63966
X304892Y64536
X300582Y64832
X296286Y65200
X267766Y47409
X254274Y55846
X234870Y70937
X244018Y77022
X212314Y80706
X211321Y71552
X202852Y80088
X189627Y96589
X209746Y111263
X186939Y131740
X186836Y137490
X185335Y151292
X188016Y161515
X187594Y168876
X191872Y169009
X197118Y168921
X201600Y168914
X188016Y178295
X180339Y189940
X164931Y181714
X162418Y196860
X162350Y204497
X172552Y221877
X183132Y209439
X199947Y210911
X164846Y167385
X123530Y163263
X123201Y187674
X119997Y219835
X118087Y227936
X104060Y239530
X136167Y238457
X140004Y234267
X100284Y272295
X240159Y158250
X243471Y154598
X250897Y162475
X258944Y162324
X263791Y155407
X255022Y154709
X255789Y147525
X249454Y137697
X249784Y130230
X249196Y126190
X249454Y122297
X244619Y114477
X250920Y109219
X244399Y106574
X277168Y130916
X285124Y136355
X285924Y146772
X305370Y146803
X317590Y146761
X317590Y132994
X332041Y153705
X291796Y187211
X286145Y114904
X285871Y97197
X250434Y38687
X246494Y35395
X155669Y73604
X147239Y111263
X151998Y114444
T05
X103885Y175537
X115739Y175487
X117865Y203236
X119771Y211773
X91750Y217026
X151334Y181130
X154376Y173377
X189874Y256956
X259561Y86557
T06
X347334Y239669
X347334Y272977
X290405Y272977
X290405Y239669
X80490Y143285
X70490Y148246
X70490Y138246
X80490Y133285
X70490Y128246
X80490Y123285
X70490Y118246
X80490Y113285
X23758Y104683
X23758Y114683
X23758Y146848
X23758Y156848
T07
X177991Y63507
X196991Y63507
X256210Y71601
X256210Y81601
X262698Y249831
X262698Y263831
X367036Y276346
X377036Y276346
T08
X52450Y48276
X52450Y58076
X52450Y65976
X52450Y75776
T09
X148185Y217115
X158185Y217115
X158185Y227115
X148185Y227115
X168185Y227115
X178185Y227115
X188185Y227115
X198185Y227115
X208185Y227115
X218185Y227115
X228185Y227115
X238185Y227115
X238185Y217115
X228185Y217115
X218185Y217115
X208185Y217115
X198185Y217115
X188185Y217115
X178185Y217115
X168185Y217115
X167071Y265922
X177071Y265922
X157071Y265922
X206690Y265632
X216690Y265632
X226690Y265632
X359621Y122834
X377421Y122834
X377421Y97234
X359621Y97234
X359621Y72574
X377421Y72574
X377421Y46974
X359621Y46974
T10
X19333Y177813
X19333Y197498
X19333Y217183
X19333Y236868
X19333Y256553
X19333Y276238
X49954Y305817
X69639Y305817
X89324Y305817
X109009Y305817
X128694Y305817
X148379Y305817
X169038Y305805
X188723Y305805
X208408Y305805
X228093Y305805
X247778Y305805
X267463Y305805
X288237Y305767
X307922Y305767
T11
X57498Y100274
X57498Y161258
T12
X226669Y118360
T13
X41750Y87876
X41750Y36176
T14
X371750Y17026
X371750Y307026
X16750Y307026
X16750Y17026
M30
