G75*
%MOIN*%
%OFA0B0*%
%FSLAX25Y25*%
%IPPOS*%
%LPD*%
%AMOC8*
5,1,8,0,0,1.08239X$1,22.5*
%
%ADD10C,0.00000*%
%ADD11C,0.00400*%
%ADD12C,0.00300*%
%ADD13C,0.00500*%
%ADD14C,0.00600*%
D10*
X0016750Y0002026D02*
X0371750Y0002026D01*
X0372112Y0002030D01*
X0372475Y0002044D01*
X0372837Y0002065D01*
X0373198Y0002096D01*
X0373558Y0002135D01*
X0373917Y0002183D01*
X0374275Y0002240D01*
X0374632Y0002305D01*
X0374987Y0002379D01*
X0375340Y0002462D01*
X0375691Y0002553D01*
X0376039Y0002652D01*
X0376385Y0002760D01*
X0376729Y0002876D01*
X0377069Y0003001D01*
X0377406Y0003133D01*
X0377740Y0003274D01*
X0378071Y0003423D01*
X0378398Y0003580D01*
X0378721Y0003744D01*
X0379040Y0003916D01*
X0379354Y0004096D01*
X0379665Y0004284D01*
X0379970Y0004479D01*
X0380271Y0004681D01*
X0380567Y0004891D01*
X0380857Y0005107D01*
X0381143Y0005331D01*
X0381423Y0005561D01*
X0381697Y0005798D01*
X0381965Y0006042D01*
X0382228Y0006292D01*
X0382484Y0006548D01*
X0382734Y0006811D01*
X0382978Y0007079D01*
X0383215Y0007353D01*
X0383445Y0007633D01*
X0383669Y0007919D01*
X0383885Y0008209D01*
X0384095Y0008505D01*
X0384297Y0008806D01*
X0384492Y0009111D01*
X0384680Y0009422D01*
X0384860Y0009736D01*
X0385032Y0010055D01*
X0385196Y0010378D01*
X0385353Y0010705D01*
X0385502Y0011036D01*
X0385643Y0011370D01*
X0385775Y0011707D01*
X0385900Y0012047D01*
X0386016Y0012391D01*
X0386124Y0012737D01*
X0386223Y0013085D01*
X0386314Y0013436D01*
X0386397Y0013789D01*
X0386471Y0014144D01*
X0386536Y0014501D01*
X0386593Y0014859D01*
X0386641Y0015218D01*
X0386680Y0015578D01*
X0386711Y0015939D01*
X0386732Y0016301D01*
X0386746Y0016664D01*
X0386750Y0017026D01*
X0386750Y0307026D01*
X0386746Y0307388D01*
X0386732Y0307751D01*
X0386711Y0308113D01*
X0386680Y0308474D01*
X0386641Y0308834D01*
X0386593Y0309193D01*
X0386536Y0309551D01*
X0386471Y0309908D01*
X0386397Y0310263D01*
X0386314Y0310616D01*
X0386223Y0310967D01*
X0386124Y0311315D01*
X0386016Y0311661D01*
X0385900Y0312005D01*
X0385775Y0312345D01*
X0385643Y0312682D01*
X0385502Y0313016D01*
X0385353Y0313347D01*
X0385196Y0313674D01*
X0385032Y0313997D01*
X0384860Y0314316D01*
X0384680Y0314630D01*
X0384492Y0314941D01*
X0384297Y0315246D01*
X0384095Y0315547D01*
X0383885Y0315843D01*
X0383669Y0316133D01*
X0383445Y0316419D01*
X0383215Y0316699D01*
X0382978Y0316973D01*
X0382734Y0317241D01*
X0382484Y0317504D01*
X0382228Y0317760D01*
X0381965Y0318010D01*
X0381697Y0318254D01*
X0381423Y0318491D01*
X0381143Y0318721D01*
X0380857Y0318945D01*
X0380567Y0319161D01*
X0380271Y0319371D01*
X0379970Y0319573D01*
X0379665Y0319768D01*
X0379354Y0319956D01*
X0379040Y0320136D01*
X0378721Y0320308D01*
X0378398Y0320472D01*
X0378071Y0320629D01*
X0377740Y0320778D01*
X0377406Y0320919D01*
X0377069Y0321051D01*
X0376729Y0321176D01*
X0376385Y0321292D01*
X0376039Y0321400D01*
X0375691Y0321499D01*
X0375340Y0321590D01*
X0374987Y0321673D01*
X0374632Y0321747D01*
X0374275Y0321812D01*
X0373917Y0321869D01*
X0373558Y0321917D01*
X0373198Y0321956D01*
X0372837Y0321987D01*
X0372475Y0322008D01*
X0372112Y0322022D01*
X0371750Y0322026D01*
X0016750Y0322026D01*
X0016388Y0322022D01*
X0016025Y0322008D01*
X0015663Y0321987D01*
X0015302Y0321956D01*
X0014942Y0321917D01*
X0014583Y0321869D01*
X0014225Y0321812D01*
X0013868Y0321747D01*
X0013513Y0321673D01*
X0013160Y0321590D01*
X0012809Y0321499D01*
X0012461Y0321400D01*
X0012115Y0321292D01*
X0011771Y0321176D01*
X0011431Y0321051D01*
X0011094Y0320919D01*
X0010760Y0320778D01*
X0010429Y0320629D01*
X0010102Y0320472D01*
X0009779Y0320308D01*
X0009460Y0320136D01*
X0009146Y0319956D01*
X0008835Y0319768D01*
X0008530Y0319573D01*
X0008229Y0319371D01*
X0007933Y0319161D01*
X0007643Y0318945D01*
X0007357Y0318721D01*
X0007077Y0318491D01*
X0006803Y0318254D01*
X0006535Y0318010D01*
X0006272Y0317760D01*
X0006016Y0317504D01*
X0005766Y0317241D01*
X0005522Y0316973D01*
X0005285Y0316699D01*
X0005055Y0316419D01*
X0004831Y0316133D01*
X0004615Y0315843D01*
X0004405Y0315547D01*
X0004203Y0315246D01*
X0004008Y0314941D01*
X0003820Y0314630D01*
X0003640Y0314316D01*
X0003468Y0313997D01*
X0003304Y0313674D01*
X0003147Y0313347D01*
X0002998Y0313016D01*
X0002857Y0312682D01*
X0002725Y0312345D01*
X0002600Y0312005D01*
X0002484Y0311661D01*
X0002376Y0311315D01*
X0002277Y0310967D01*
X0002186Y0310616D01*
X0002103Y0310263D01*
X0002029Y0309908D01*
X0001964Y0309551D01*
X0001907Y0309193D01*
X0001859Y0308834D01*
X0001820Y0308474D01*
X0001789Y0308113D01*
X0001768Y0307751D01*
X0001754Y0307388D01*
X0001750Y0307026D01*
X0001750Y0017026D01*
X0001754Y0016664D01*
X0001768Y0016301D01*
X0001789Y0015939D01*
X0001820Y0015578D01*
X0001859Y0015218D01*
X0001907Y0014859D01*
X0001964Y0014501D01*
X0002029Y0014144D01*
X0002103Y0013789D01*
X0002186Y0013436D01*
X0002277Y0013085D01*
X0002376Y0012737D01*
X0002484Y0012391D01*
X0002600Y0012047D01*
X0002725Y0011707D01*
X0002857Y0011370D01*
X0002998Y0011036D01*
X0003147Y0010705D01*
X0003304Y0010378D01*
X0003468Y0010055D01*
X0003640Y0009736D01*
X0003820Y0009422D01*
X0004008Y0009111D01*
X0004203Y0008806D01*
X0004405Y0008505D01*
X0004615Y0008209D01*
X0004831Y0007919D01*
X0005055Y0007633D01*
X0005285Y0007353D01*
X0005522Y0007079D01*
X0005766Y0006811D01*
X0006016Y0006548D01*
X0006272Y0006292D01*
X0006535Y0006042D01*
X0006803Y0005798D01*
X0007077Y0005561D01*
X0007357Y0005331D01*
X0007643Y0005107D01*
X0007933Y0004891D01*
X0008229Y0004681D01*
X0008530Y0004479D01*
X0008835Y0004284D01*
X0009146Y0004096D01*
X0009460Y0003916D01*
X0009779Y0003744D01*
X0010102Y0003580D01*
X0010429Y0003423D01*
X0010760Y0003274D01*
X0011094Y0003133D01*
X0011431Y0003001D01*
X0011771Y0002876D01*
X0012115Y0002760D01*
X0012461Y0002652D01*
X0012809Y0002553D01*
X0013160Y0002462D01*
X0013513Y0002379D01*
X0013868Y0002305D01*
X0014225Y0002240D01*
X0014583Y0002183D01*
X0014942Y0002135D01*
X0015302Y0002096D01*
X0015663Y0002065D01*
X0016025Y0002044D01*
X0016388Y0002030D01*
X0016750Y0002026D01*
D11*
X0047217Y0271600D02*
X0046350Y0272467D01*
X0046350Y0274202D01*
X0047217Y0275070D01*
X0048952Y0275070D01*
X0048952Y0273335D01*
X0050687Y0271600D02*
X0047217Y0271600D01*
X0050687Y0271600D02*
X0051554Y0272467D01*
X0051554Y0274202D01*
X0050687Y0275070D01*
X0051554Y0276756D02*
X0051554Y0279359D01*
X0050687Y0280226D01*
X0048952Y0280226D01*
X0048085Y0279359D01*
X0048085Y0276756D01*
X0046350Y0276756D02*
X0051554Y0276756D01*
X0049820Y0281913D02*
X0046350Y0281913D01*
X0048952Y0281913D02*
X0048952Y0285382D01*
X0049820Y0285382D02*
X0046350Y0285382D01*
X0046350Y0287069D02*
X0047217Y0287069D01*
X0050687Y0290539D01*
X0051554Y0290539D01*
X0051554Y0287069D01*
X0049820Y0285382D02*
X0051554Y0283648D01*
X0049820Y0281913D01*
X0066950Y0282538D02*
X0070420Y0282538D01*
X0072154Y0284273D01*
X0070420Y0286008D01*
X0066950Y0286008D01*
X0067817Y0287695D02*
X0066950Y0288562D01*
X0066950Y0290297D01*
X0067817Y0291164D01*
X0068685Y0291164D01*
X0069552Y0290297D01*
X0069552Y0287695D01*
X0067817Y0287695D01*
X0069552Y0287695D02*
X0071287Y0289430D01*
X0072154Y0291164D01*
X0069552Y0286008D02*
X0069552Y0282538D01*
X0069552Y0280852D02*
X0068685Y0279984D01*
X0068685Y0277382D01*
X0066950Y0277382D02*
X0072154Y0277382D01*
X0072154Y0279984D01*
X0071287Y0280852D01*
X0069552Y0280852D01*
X0069552Y0275695D02*
X0069552Y0273960D01*
X0069552Y0275695D02*
X0067817Y0275695D01*
X0066950Y0274828D01*
X0066950Y0273093D01*
X0067817Y0272226D01*
X0071287Y0272226D01*
X0072154Y0273093D01*
X0072154Y0274828D01*
X0071287Y0275695D01*
X0086950Y0274828D02*
X0087817Y0275695D01*
X0089552Y0275695D01*
X0089552Y0273960D01*
X0091287Y0272226D02*
X0087817Y0272226D01*
X0086950Y0273093D01*
X0086950Y0274828D01*
X0086950Y0277382D02*
X0092154Y0277382D01*
X0092154Y0279984D01*
X0091287Y0280852D01*
X0089552Y0280852D01*
X0088685Y0279984D01*
X0088685Y0277382D01*
X0091287Y0275695D02*
X0092154Y0274828D01*
X0092154Y0273093D01*
X0091287Y0272226D01*
X0090420Y0282538D02*
X0086950Y0282538D01*
X0089552Y0282538D02*
X0089552Y0286008D01*
X0090420Y0286008D02*
X0086950Y0286008D01*
X0087817Y0287695D02*
X0086950Y0288562D01*
X0086950Y0290297D01*
X0087817Y0291164D01*
X0089552Y0291164D01*
X0090420Y0290297D01*
X0090420Y0289430D01*
X0089552Y0287695D01*
X0092154Y0287695D01*
X0092154Y0291164D01*
X0090420Y0286008D02*
X0092154Y0284273D01*
X0090420Y0282538D01*
X0106950Y0282538D02*
X0110420Y0282538D01*
X0112154Y0284273D01*
X0110420Y0286008D01*
X0106950Y0286008D01*
X0109552Y0286008D02*
X0109552Y0282538D01*
X0109552Y0280852D02*
X0108685Y0279984D01*
X0108685Y0277382D01*
X0106950Y0277382D02*
X0112154Y0277382D01*
X0112154Y0279984D01*
X0111287Y0280852D01*
X0109552Y0280852D01*
X0109552Y0275695D02*
X0107817Y0275695D01*
X0106950Y0274828D01*
X0106950Y0273093D01*
X0107817Y0272226D01*
X0111287Y0272226D01*
X0112154Y0273093D01*
X0112154Y0274828D01*
X0111287Y0275695D01*
X0109552Y0275695D02*
X0109552Y0273960D01*
X0109552Y0287695D02*
X0109552Y0291164D01*
X0106950Y0290297D02*
X0112154Y0290297D01*
X0109552Y0287695D01*
X0126950Y0288562D02*
X0127817Y0287695D01*
X0126950Y0288562D02*
X0126950Y0290297D01*
X0127817Y0291164D01*
X0128685Y0291164D01*
X0129552Y0290297D01*
X0129552Y0289430D01*
X0129552Y0290297D02*
X0130420Y0291164D01*
X0131287Y0291164D01*
X0132154Y0290297D01*
X0132154Y0288562D01*
X0131287Y0287695D01*
X0130420Y0286008D02*
X0126950Y0286008D01*
X0129552Y0286008D02*
X0129552Y0282538D01*
X0130420Y0282538D02*
X0132154Y0284273D01*
X0130420Y0286008D01*
X0130420Y0282538D02*
X0126950Y0282538D01*
X0128685Y0279984D02*
X0128685Y0277382D01*
X0126950Y0277382D02*
X0132154Y0277382D01*
X0132154Y0279984D01*
X0131287Y0280852D01*
X0129552Y0280852D01*
X0128685Y0279984D01*
X0127817Y0275695D02*
X0129552Y0275695D01*
X0129552Y0273960D01*
X0131287Y0272226D02*
X0127817Y0272226D01*
X0126950Y0273093D01*
X0126950Y0274828D01*
X0127817Y0275695D01*
X0131287Y0275695D02*
X0132154Y0274828D01*
X0132154Y0273093D01*
X0131287Y0272226D01*
X0146950Y0273093D02*
X0146950Y0274828D01*
X0147817Y0275695D01*
X0149552Y0275695D01*
X0149552Y0273960D01*
X0147817Y0272226D02*
X0146950Y0273093D01*
X0147817Y0272226D02*
X0151287Y0272226D01*
X0152154Y0273093D01*
X0152154Y0274828D01*
X0151287Y0275695D01*
X0152154Y0277382D02*
X0152154Y0279984D01*
X0151287Y0280852D01*
X0149552Y0280852D01*
X0148685Y0279984D01*
X0148685Y0277382D01*
X0146950Y0277382D02*
X0152154Y0277382D01*
X0150420Y0282538D02*
X0146950Y0282538D01*
X0149552Y0282538D02*
X0149552Y0286008D01*
X0150420Y0286008D02*
X0146950Y0286008D01*
X0146950Y0287695D02*
X0150420Y0291164D01*
X0151287Y0291164D01*
X0152154Y0290297D01*
X0152154Y0288562D01*
X0151287Y0287695D01*
X0150420Y0286008D02*
X0152154Y0284273D01*
X0150420Y0282538D01*
X0146950Y0287695D02*
X0146950Y0291164D01*
X0281259Y0290541D02*
X0281259Y0294011D01*
X0282127Y0294878D01*
X0284729Y0294878D01*
X0284729Y0289674D01*
X0282127Y0289674D01*
X0281259Y0290541D01*
X0286416Y0289674D02*
X0286416Y0294878D01*
X0289885Y0294878D02*
X0286416Y0289674D01*
X0289885Y0289674D02*
X0289885Y0294878D01*
X0291572Y0294011D02*
X0292439Y0294878D01*
X0294174Y0294878D01*
X0295042Y0294011D01*
X0295042Y0290541D01*
X0294174Y0289674D01*
X0292439Y0289674D01*
X0291572Y0290541D01*
X0291572Y0292276D01*
X0293307Y0292276D01*
X0301020Y0293741D02*
X0301020Y0290272D01*
X0301888Y0289404D01*
X0304490Y0289404D01*
X0304490Y0294609D01*
X0301888Y0294609D01*
X0301020Y0293741D01*
X0306177Y0293741D02*
X0306177Y0290272D01*
X0307044Y0289404D01*
X0309646Y0289404D01*
X0309646Y0294609D01*
X0307044Y0294609D01*
X0306177Y0293741D01*
X0311333Y0294609D02*
X0311333Y0291139D01*
X0313068Y0289404D01*
X0314803Y0291139D01*
X0314803Y0294609D01*
D12*
X0181249Y0106294D02*
X0181733Y0105810D01*
X0181733Y0103875D01*
X0181249Y0103391D01*
X0180282Y0103391D01*
X0179798Y0103875D01*
X0178787Y0103875D02*
X0178303Y0103391D01*
X0177335Y0103391D01*
X0176852Y0103875D01*
X0176852Y0104359D01*
X0177335Y0104843D01*
X0177819Y0104843D01*
X0177335Y0104843D02*
X0176852Y0105326D01*
X0176852Y0105810D01*
X0177335Y0106294D01*
X0178303Y0106294D01*
X0178787Y0105810D01*
X0179798Y0105810D02*
X0180282Y0106294D01*
X0181249Y0106294D01*
X0175840Y0104843D02*
X0173905Y0104843D01*
X0174389Y0106294D02*
X0175840Y0104843D01*
X0174389Y0103391D02*
X0174389Y0106294D01*
X0174581Y0097314D02*
X0174581Y0094411D01*
X0175548Y0094411D02*
X0173613Y0094411D01*
X0175548Y0096346D02*
X0174581Y0097314D01*
X0176560Y0096830D02*
X0176560Y0096346D01*
X0177043Y0095863D01*
X0176560Y0095379D01*
X0176560Y0094895D01*
X0177043Y0094411D01*
X0178011Y0094411D01*
X0178495Y0094895D01*
X0179506Y0094895D02*
X0179990Y0094411D01*
X0180957Y0094411D01*
X0181441Y0094895D01*
X0181441Y0096830D01*
X0180957Y0097314D01*
X0179990Y0097314D01*
X0179506Y0096830D01*
X0178495Y0096830D02*
X0178011Y0097314D01*
X0177043Y0097314D01*
X0176560Y0096830D01*
X0177043Y0095863D02*
X0177527Y0095863D01*
X0177408Y0088771D02*
X0175957Y0088771D01*
X0175473Y0088288D01*
X0175473Y0087320D01*
X0175957Y0086836D01*
X0177408Y0086836D01*
X0177408Y0085869D02*
X0177408Y0088771D01*
X0176441Y0086836D02*
X0175473Y0085869D01*
X0174462Y0085869D02*
X0172527Y0087804D01*
X0172527Y0088288D01*
X0173010Y0088771D01*
X0173978Y0088771D01*
X0174462Y0088288D01*
X0174462Y0085869D02*
X0172527Y0085869D01*
X0171515Y0086353D02*
X0171515Y0086836D01*
X0171031Y0087320D01*
X0170064Y0087320D01*
X0169580Y0086836D01*
X0169580Y0086353D01*
X0170064Y0085869D01*
X0171031Y0085869D01*
X0171515Y0086353D01*
X0171031Y0087320D02*
X0171515Y0087804D01*
X0171515Y0088288D01*
X0171031Y0088771D01*
X0170064Y0088771D01*
X0169580Y0088288D01*
X0169580Y0087804D01*
X0170064Y0087320D01*
X0188662Y0088062D02*
X0190597Y0086127D01*
X0190597Y0085643D01*
X0191609Y0085643D02*
X0193544Y0085643D01*
X0191609Y0087578D01*
X0191609Y0088062D01*
X0192092Y0088545D01*
X0193060Y0088545D01*
X0193544Y0088062D01*
X0194555Y0088062D02*
X0195039Y0088545D01*
X0196006Y0088545D01*
X0196490Y0088062D01*
X0196490Y0086127D01*
X0196006Y0085643D01*
X0195039Y0085643D01*
X0194555Y0086127D01*
X0190597Y0088545D02*
X0188662Y0088545D01*
X0188662Y0088062D01*
X0188889Y0081206D02*
X0188406Y0080723D01*
X0188406Y0080239D01*
X0188889Y0079755D01*
X0189857Y0079755D01*
X0190341Y0080239D01*
X0190341Y0080723D01*
X0189857Y0081206D01*
X0188889Y0081206D01*
X0188889Y0079755D02*
X0188406Y0079271D01*
X0188406Y0078788D01*
X0188889Y0078304D01*
X0189857Y0078304D01*
X0190341Y0078788D01*
X0190341Y0079271D01*
X0189857Y0079755D01*
X0191352Y0080239D02*
X0191352Y0080723D01*
X0191836Y0081206D01*
X0192803Y0081206D01*
X0193287Y0080723D01*
X0194299Y0080723D02*
X0194782Y0081206D01*
X0195750Y0081206D01*
X0196234Y0080723D01*
X0196234Y0078788D01*
X0195750Y0078304D01*
X0194782Y0078304D01*
X0194299Y0078788D01*
X0193287Y0078304D02*
X0191352Y0080239D01*
X0191352Y0078304D02*
X0193287Y0078304D01*
D13*
X0282560Y0060349D02*
X0282560Y0007987D01*
X0282560Y0003656D01*
X0288465Y0003656D01*
X0289253Y0005349D01*
X0309253Y0007849D01*
X0329253Y0005349D01*
X0330040Y0003656D01*
X0335946Y0003656D01*
X0335946Y0060349D01*
X0282560Y0060349D01*
X0038403Y0108266D02*
X0038405Y0108440D01*
X0038412Y0108614D01*
X0038422Y0108787D01*
X0038437Y0108961D01*
X0038456Y0109134D01*
X0038480Y0109306D01*
X0038507Y0109478D01*
X0038539Y0109649D01*
X0038575Y0109819D01*
X0038615Y0109988D01*
X0038660Y0110156D01*
X0038708Y0110323D01*
X0038761Y0110489D01*
X0038817Y0110654D01*
X0038878Y0110817D01*
X0038942Y0110978D01*
X0039011Y0111138D01*
X0039083Y0111296D01*
X0039160Y0111452D01*
X0039240Y0111607D01*
X0039324Y0111759D01*
X0039411Y0111909D01*
X0039503Y0112058D01*
X0039597Y0112203D01*
X0039696Y0112347D01*
X0039798Y0112488D01*
X0039903Y0112626D01*
X0040012Y0112762D01*
X0040124Y0112895D01*
X0040239Y0113025D01*
X0040357Y0113153D01*
X0040479Y0113277D01*
X0040603Y0113399D01*
X0040731Y0113517D01*
X0040861Y0113632D01*
X0040994Y0113744D01*
X0041130Y0113853D01*
X0041268Y0113958D01*
X0041409Y0114060D01*
X0041553Y0114159D01*
X0041698Y0114253D01*
X0041847Y0114345D01*
X0041997Y0114432D01*
X0042149Y0114516D01*
X0042304Y0114596D01*
X0042460Y0114673D01*
X0042618Y0114745D01*
X0042778Y0114814D01*
X0042939Y0114878D01*
X0043102Y0114939D01*
X0043267Y0114995D01*
X0043433Y0115048D01*
X0043600Y0115096D01*
X0043768Y0115141D01*
X0043937Y0115181D01*
X0044107Y0115217D01*
X0044278Y0115249D01*
X0044450Y0115276D01*
X0044622Y0115300D01*
X0044795Y0115319D01*
X0044969Y0115334D01*
X0045142Y0115344D01*
X0045316Y0115351D01*
X0045490Y0115353D01*
X0045664Y0115351D01*
X0045838Y0115344D01*
X0046011Y0115334D01*
X0046185Y0115319D01*
X0046358Y0115300D01*
X0046530Y0115276D01*
X0046702Y0115249D01*
X0046873Y0115217D01*
X0047043Y0115181D01*
X0047212Y0115141D01*
X0047380Y0115096D01*
X0047547Y0115048D01*
X0047713Y0114995D01*
X0047878Y0114939D01*
X0048041Y0114878D01*
X0048202Y0114814D01*
X0048362Y0114745D01*
X0048520Y0114673D01*
X0048676Y0114596D01*
X0048831Y0114516D01*
X0048983Y0114432D01*
X0049133Y0114345D01*
X0049282Y0114253D01*
X0049427Y0114159D01*
X0049571Y0114060D01*
X0049712Y0113958D01*
X0049850Y0113853D01*
X0049986Y0113744D01*
X0050119Y0113632D01*
X0050249Y0113517D01*
X0050377Y0113399D01*
X0050501Y0113277D01*
X0050623Y0113153D01*
X0050741Y0113025D01*
X0050856Y0112895D01*
X0050968Y0112762D01*
X0051077Y0112626D01*
X0051182Y0112488D01*
X0051284Y0112347D01*
X0051383Y0112203D01*
X0051477Y0112058D01*
X0051569Y0111909D01*
X0051656Y0111759D01*
X0051740Y0111607D01*
X0051820Y0111452D01*
X0051897Y0111296D01*
X0051969Y0111138D01*
X0052038Y0110978D01*
X0052102Y0110817D01*
X0052163Y0110654D01*
X0052219Y0110489D01*
X0052272Y0110323D01*
X0052320Y0110156D01*
X0052365Y0109988D01*
X0052405Y0109819D01*
X0052441Y0109649D01*
X0052473Y0109478D01*
X0052500Y0109306D01*
X0052524Y0109134D01*
X0052543Y0108961D01*
X0052558Y0108787D01*
X0052568Y0108614D01*
X0052575Y0108440D01*
X0052577Y0108266D01*
X0052575Y0108092D01*
X0052568Y0107918D01*
X0052558Y0107745D01*
X0052543Y0107571D01*
X0052524Y0107398D01*
X0052500Y0107226D01*
X0052473Y0107054D01*
X0052441Y0106883D01*
X0052405Y0106713D01*
X0052365Y0106544D01*
X0052320Y0106376D01*
X0052272Y0106209D01*
X0052219Y0106043D01*
X0052163Y0105878D01*
X0052102Y0105715D01*
X0052038Y0105554D01*
X0051969Y0105394D01*
X0051897Y0105236D01*
X0051820Y0105080D01*
X0051740Y0104925D01*
X0051656Y0104773D01*
X0051569Y0104623D01*
X0051477Y0104474D01*
X0051383Y0104329D01*
X0051284Y0104185D01*
X0051182Y0104044D01*
X0051077Y0103906D01*
X0050968Y0103770D01*
X0050856Y0103637D01*
X0050741Y0103507D01*
X0050623Y0103379D01*
X0050501Y0103255D01*
X0050377Y0103133D01*
X0050249Y0103015D01*
X0050119Y0102900D01*
X0049986Y0102788D01*
X0049850Y0102679D01*
X0049712Y0102574D01*
X0049571Y0102472D01*
X0049427Y0102373D01*
X0049282Y0102279D01*
X0049133Y0102187D01*
X0048983Y0102100D01*
X0048831Y0102016D01*
X0048676Y0101936D01*
X0048520Y0101859D01*
X0048362Y0101787D01*
X0048202Y0101718D01*
X0048041Y0101654D01*
X0047878Y0101593D01*
X0047713Y0101537D01*
X0047547Y0101484D01*
X0047380Y0101436D01*
X0047212Y0101391D01*
X0047043Y0101351D01*
X0046873Y0101315D01*
X0046702Y0101283D01*
X0046530Y0101256D01*
X0046358Y0101232D01*
X0046185Y0101213D01*
X0046011Y0101198D01*
X0045838Y0101188D01*
X0045664Y0101181D01*
X0045490Y0101179D01*
X0045316Y0101181D01*
X0045142Y0101188D01*
X0044969Y0101198D01*
X0044795Y0101213D01*
X0044622Y0101232D01*
X0044450Y0101256D01*
X0044278Y0101283D01*
X0044107Y0101315D01*
X0043937Y0101351D01*
X0043768Y0101391D01*
X0043600Y0101436D01*
X0043433Y0101484D01*
X0043267Y0101537D01*
X0043102Y0101593D01*
X0042939Y0101654D01*
X0042778Y0101718D01*
X0042618Y0101787D01*
X0042460Y0101859D01*
X0042304Y0101936D01*
X0042149Y0102016D01*
X0041997Y0102100D01*
X0041847Y0102187D01*
X0041698Y0102279D01*
X0041553Y0102373D01*
X0041409Y0102472D01*
X0041268Y0102574D01*
X0041130Y0102679D01*
X0040994Y0102788D01*
X0040861Y0102900D01*
X0040731Y0103015D01*
X0040603Y0103133D01*
X0040479Y0103255D01*
X0040357Y0103379D01*
X0040239Y0103507D01*
X0040124Y0103637D01*
X0040012Y0103770D01*
X0039903Y0103906D01*
X0039798Y0104044D01*
X0039696Y0104185D01*
X0039597Y0104329D01*
X0039503Y0104474D01*
X0039411Y0104623D01*
X0039324Y0104773D01*
X0039240Y0104925D01*
X0039160Y0105080D01*
X0039083Y0105236D01*
X0039011Y0105394D01*
X0038942Y0105554D01*
X0038878Y0105715D01*
X0038817Y0105878D01*
X0038761Y0106043D01*
X0038708Y0106209D01*
X0038660Y0106376D01*
X0038615Y0106544D01*
X0038575Y0106713D01*
X0038539Y0106883D01*
X0038507Y0107054D01*
X0038480Y0107226D01*
X0038456Y0107398D01*
X0038437Y0107571D01*
X0038422Y0107745D01*
X0038412Y0107918D01*
X0038405Y0108092D01*
X0038403Y0108266D01*
X0038403Y0153266D02*
X0038405Y0153440D01*
X0038412Y0153614D01*
X0038422Y0153787D01*
X0038437Y0153961D01*
X0038456Y0154134D01*
X0038480Y0154306D01*
X0038507Y0154478D01*
X0038539Y0154649D01*
X0038575Y0154819D01*
X0038615Y0154988D01*
X0038660Y0155156D01*
X0038708Y0155323D01*
X0038761Y0155489D01*
X0038817Y0155654D01*
X0038878Y0155817D01*
X0038942Y0155978D01*
X0039011Y0156138D01*
X0039083Y0156296D01*
X0039160Y0156452D01*
X0039240Y0156607D01*
X0039324Y0156759D01*
X0039411Y0156909D01*
X0039503Y0157058D01*
X0039597Y0157203D01*
X0039696Y0157347D01*
X0039798Y0157488D01*
X0039903Y0157626D01*
X0040012Y0157762D01*
X0040124Y0157895D01*
X0040239Y0158025D01*
X0040357Y0158153D01*
X0040479Y0158277D01*
X0040603Y0158399D01*
X0040731Y0158517D01*
X0040861Y0158632D01*
X0040994Y0158744D01*
X0041130Y0158853D01*
X0041268Y0158958D01*
X0041409Y0159060D01*
X0041553Y0159159D01*
X0041698Y0159253D01*
X0041847Y0159345D01*
X0041997Y0159432D01*
X0042149Y0159516D01*
X0042304Y0159596D01*
X0042460Y0159673D01*
X0042618Y0159745D01*
X0042778Y0159814D01*
X0042939Y0159878D01*
X0043102Y0159939D01*
X0043267Y0159995D01*
X0043433Y0160048D01*
X0043600Y0160096D01*
X0043768Y0160141D01*
X0043937Y0160181D01*
X0044107Y0160217D01*
X0044278Y0160249D01*
X0044450Y0160276D01*
X0044622Y0160300D01*
X0044795Y0160319D01*
X0044969Y0160334D01*
X0045142Y0160344D01*
X0045316Y0160351D01*
X0045490Y0160353D01*
X0045664Y0160351D01*
X0045838Y0160344D01*
X0046011Y0160334D01*
X0046185Y0160319D01*
X0046358Y0160300D01*
X0046530Y0160276D01*
X0046702Y0160249D01*
X0046873Y0160217D01*
X0047043Y0160181D01*
X0047212Y0160141D01*
X0047380Y0160096D01*
X0047547Y0160048D01*
X0047713Y0159995D01*
X0047878Y0159939D01*
X0048041Y0159878D01*
X0048202Y0159814D01*
X0048362Y0159745D01*
X0048520Y0159673D01*
X0048676Y0159596D01*
X0048831Y0159516D01*
X0048983Y0159432D01*
X0049133Y0159345D01*
X0049282Y0159253D01*
X0049427Y0159159D01*
X0049571Y0159060D01*
X0049712Y0158958D01*
X0049850Y0158853D01*
X0049986Y0158744D01*
X0050119Y0158632D01*
X0050249Y0158517D01*
X0050377Y0158399D01*
X0050501Y0158277D01*
X0050623Y0158153D01*
X0050741Y0158025D01*
X0050856Y0157895D01*
X0050968Y0157762D01*
X0051077Y0157626D01*
X0051182Y0157488D01*
X0051284Y0157347D01*
X0051383Y0157203D01*
X0051477Y0157058D01*
X0051569Y0156909D01*
X0051656Y0156759D01*
X0051740Y0156607D01*
X0051820Y0156452D01*
X0051897Y0156296D01*
X0051969Y0156138D01*
X0052038Y0155978D01*
X0052102Y0155817D01*
X0052163Y0155654D01*
X0052219Y0155489D01*
X0052272Y0155323D01*
X0052320Y0155156D01*
X0052365Y0154988D01*
X0052405Y0154819D01*
X0052441Y0154649D01*
X0052473Y0154478D01*
X0052500Y0154306D01*
X0052524Y0154134D01*
X0052543Y0153961D01*
X0052558Y0153787D01*
X0052568Y0153614D01*
X0052575Y0153440D01*
X0052577Y0153266D01*
X0052575Y0153092D01*
X0052568Y0152918D01*
X0052558Y0152745D01*
X0052543Y0152571D01*
X0052524Y0152398D01*
X0052500Y0152226D01*
X0052473Y0152054D01*
X0052441Y0151883D01*
X0052405Y0151713D01*
X0052365Y0151544D01*
X0052320Y0151376D01*
X0052272Y0151209D01*
X0052219Y0151043D01*
X0052163Y0150878D01*
X0052102Y0150715D01*
X0052038Y0150554D01*
X0051969Y0150394D01*
X0051897Y0150236D01*
X0051820Y0150080D01*
X0051740Y0149925D01*
X0051656Y0149773D01*
X0051569Y0149623D01*
X0051477Y0149474D01*
X0051383Y0149329D01*
X0051284Y0149185D01*
X0051182Y0149044D01*
X0051077Y0148906D01*
X0050968Y0148770D01*
X0050856Y0148637D01*
X0050741Y0148507D01*
X0050623Y0148379D01*
X0050501Y0148255D01*
X0050377Y0148133D01*
X0050249Y0148015D01*
X0050119Y0147900D01*
X0049986Y0147788D01*
X0049850Y0147679D01*
X0049712Y0147574D01*
X0049571Y0147472D01*
X0049427Y0147373D01*
X0049282Y0147279D01*
X0049133Y0147187D01*
X0048983Y0147100D01*
X0048831Y0147016D01*
X0048676Y0146936D01*
X0048520Y0146859D01*
X0048362Y0146787D01*
X0048202Y0146718D01*
X0048041Y0146654D01*
X0047878Y0146593D01*
X0047713Y0146537D01*
X0047547Y0146484D01*
X0047380Y0146436D01*
X0047212Y0146391D01*
X0047043Y0146351D01*
X0046873Y0146315D01*
X0046702Y0146283D01*
X0046530Y0146256D01*
X0046358Y0146232D01*
X0046185Y0146213D01*
X0046011Y0146198D01*
X0045838Y0146188D01*
X0045664Y0146181D01*
X0045490Y0146179D01*
X0045316Y0146181D01*
X0045142Y0146188D01*
X0044969Y0146198D01*
X0044795Y0146213D01*
X0044622Y0146232D01*
X0044450Y0146256D01*
X0044278Y0146283D01*
X0044107Y0146315D01*
X0043937Y0146351D01*
X0043768Y0146391D01*
X0043600Y0146436D01*
X0043433Y0146484D01*
X0043267Y0146537D01*
X0043102Y0146593D01*
X0042939Y0146654D01*
X0042778Y0146718D01*
X0042618Y0146787D01*
X0042460Y0146859D01*
X0042304Y0146936D01*
X0042149Y0147016D01*
X0041997Y0147100D01*
X0041847Y0147187D01*
X0041698Y0147279D01*
X0041553Y0147373D01*
X0041409Y0147472D01*
X0041268Y0147574D01*
X0041130Y0147679D01*
X0040994Y0147788D01*
X0040861Y0147900D01*
X0040731Y0148015D01*
X0040603Y0148133D01*
X0040479Y0148255D01*
X0040357Y0148379D01*
X0040239Y0148507D01*
X0040124Y0148637D01*
X0040012Y0148770D01*
X0039903Y0148906D01*
X0039798Y0149044D01*
X0039696Y0149185D01*
X0039597Y0149329D01*
X0039503Y0149474D01*
X0039411Y0149623D01*
X0039324Y0149773D01*
X0039240Y0149925D01*
X0039160Y0150080D01*
X0039083Y0150236D01*
X0039011Y0150394D01*
X0038942Y0150554D01*
X0038878Y0150715D01*
X0038817Y0150878D01*
X0038761Y0151043D01*
X0038708Y0151209D01*
X0038660Y0151376D01*
X0038615Y0151544D01*
X0038575Y0151713D01*
X0038539Y0151883D01*
X0038507Y0152054D01*
X0038480Y0152226D01*
X0038456Y0152398D01*
X0038437Y0152571D01*
X0038422Y0152745D01*
X0038412Y0152918D01*
X0038405Y0153092D01*
X0038403Y0153266D01*
D14*
X0224359Y0046888D02*
X0224359Y0040888D01*
X0224361Y0040828D01*
X0224366Y0040767D01*
X0224375Y0040708D01*
X0224388Y0040649D01*
X0224404Y0040590D01*
X0224424Y0040533D01*
X0224447Y0040478D01*
X0224474Y0040423D01*
X0224503Y0040371D01*
X0224536Y0040320D01*
X0224572Y0040271D01*
X0224610Y0040225D01*
X0224652Y0040181D01*
X0224696Y0040139D01*
X0224742Y0040101D01*
X0224791Y0040065D01*
X0224842Y0040032D01*
X0224894Y0040003D01*
X0224949Y0039976D01*
X0225004Y0039953D01*
X0225061Y0039933D01*
X0225120Y0039917D01*
X0225179Y0039904D01*
X0225238Y0039895D01*
X0225299Y0039890D01*
X0225359Y0039888D01*
X0242359Y0039888D01*
X0242419Y0039890D01*
X0242480Y0039895D01*
X0242539Y0039904D01*
X0242598Y0039917D01*
X0242657Y0039933D01*
X0242714Y0039953D01*
X0242769Y0039976D01*
X0242824Y0040003D01*
X0242876Y0040032D01*
X0242927Y0040065D01*
X0242976Y0040101D01*
X0243022Y0040139D01*
X0243066Y0040181D01*
X0243108Y0040225D01*
X0243146Y0040271D01*
X0243182Y0040320D01*
X0243215Y0040371D01*
X0243244Y0040423D01*
X0243271Y0040478D01*
X0243294Y0040533D01*
X0243314Y0040590D01*
X0243330Y0040649D01*
X0243343Y0040708D01*
X0243352Y0040767D01*
X0243357Y0040828D01*
X0243359Y0040888D01*
X0243359Y0046888D01*
X0243357Y0046948D01*
X0243352Y0047009D01*
X0243343Y0047068D01*
X0243330Y0047127D01*
X0243314Y0047186D01*
X0243294Y0047243D01*
X0243271Y0047298D01*
X0243244Y0047353D01*
X0243215Y0047405D01*
X0243182Y0047456D01*
X0243146Y0047505D01*
X0243108Y0047551D01*
X0243066Y0047595D01*
X0243022Y0047637D01*
X0242976Y0047675D01*
X0242927Y0047711D01*
X0242876Y0047744D01*
X0242824Y0047773D01*
X0242769Y0047800D01*
X0242714Y0047823D01*
X0242657Y0047843D01*
X0242598Y0047859D01*
X0242539Y0047872D01*
X0242480Y0047881D01*
X0242419Y0047886D01*
X0242359Y0047888D01*
X0225359Y0047888D01*
X0225299Y0047886D01*
X0225238Y0047881D01*
X0225179Y0047872D01*
X0225120Y0047859D01*
X0225061Y0047843D01*
X0225004Y0047823D01*
X0224949Y0047800D01*
X0224894Y0047773D01*
X0224842Y0047744D01*
X0224791Y0047711D01*
X0224742Y0047675D01*
X0224696Y0047637D01*
X0224652Y0047595D01*
X0224610Y0047551D01*
X0224572Y0047505D01*
X0224536Y0047456D01*
X0224503Y0047405D01*
X0224474Y0047353D01*
X0224447Y0047298D01*
X0224424Y0047243D01*
X0224404Y0047186D01*
X0224388Y0047127D01*
X0224375Y0047068D01*
X0224366Y0047009D01*
X0224361Y0046948D01*
X0224359Y0046888D01*
X0244586Y0047671D02*
X0244586Y0041671D01*
X0244588Y0041611D01*
X0244593Y0041550D01*
X0244602Y0041491D01*
X0244615Y0041432D01*
X0244631Y0041373D01*
X0244651Y0041316D01*
X0244674Y0041261D01*
X0244701Y0041206D01*
X0244730Y0041154D01*
X0244763Y0041103D01*
X0244799Y0041054D01*
X0244837Y0041008D01*
X0244879Y0040964D01*
X0244923Y0040922D01*
X0244969Y0040884D01*
X0245018Y0040848D01*
X0245069Y0040815D01*
X0245121Y0040786D01*
X0245176Y0040759D01*
X0245231Y0040736D01*
X0245288Y0040716D01*
X0245347Y0040700D01*
X0245406Y0040687D01*
X0245465Y0040678D01*
X0245526Y0040673D01*
X0245586Y0040671D01*
X0262586Y0040671D01*
X0262646Y0040673D01*
X0262707Y0040678D01*
X0262766Y0040687D01*
X0262825Y0040700D01*
X0262884Y0040716D01*
X0262941Y0040736D01*
X0262996Y0040759D01*
X0263051Y0040786D01*
X0263103Y0040815D01*
X0263154Y0040848D01*
X0263203Y0040884D01*
X0263249Y0040922D01*
X0263293Y0040964D01*
X0263335Y0041008D01*
X0263373Y0041054D01*
X0263409Y0041103D01*
X0263442Y0041154D01*
X0263471Y0041206D01*
X0263498Y0041261D01*
X0263521Y0041316D01*
X0263541Y0041373D01*
X0263557Y0041432D01*
X0263570Y0041491D01*
X0263579Y0041550D01*
X0263584Y0041611D01*
X0263586Y0041671D01*
X0263586Y0047671D01*
X0263584Y0047731D01*
X0263579Y0047792D01*
X0263570Y0047851D01*
X0263557Y0047910D01*
X0263541Y0047969D01*
X0263521Y0048026D01*
X0263498Y0048081D01*
X0263471Y0048136D01*
X0263442Y0048188D01*
X0263409Y0048239D01*
X0263373Y0048288D01*
X0263335Y0048334D01*
X0263293Y0048378D01*
X0263249Y0048420D01*
X0263203Y0048458D01*
X0263154Y0048494D01*
X0263103Y0048527D01*
X0263051Y0048556D01*
X0262996Y0048583D01*
X0262941Y0048606D01*
X0262884Y0048626D01*
X0262825Y0048642D01*
X0262766Y0048655D01*
X0262707Y0048664D01*
X0262646Y0048669D01*
X0262586Y0048671D01*
X0245586Y0048671D01*
X0245526Y0048669D01*
X0245465Y0048664D01*
X0245406Y0048655D01*
X0245347Y0048642D01*
X0245288Y0048626D01*
X0245231Y0048606D01*
X0245176Y0048583D01*
X0245121Y0048556D01*
X0245069Y0048527D01*
X0245018Y0048494D01*
X0244969Y0048458D01*
X0244923Y0048420D01*
X0244879Y0048378D01*
X0244837Y0048334D01*
X0244799Y0048288D01*
X0244763Y0048239D01*
X0244730Y0048188D01*
X0244701Y0048136D01*
X0244674Y0048081D01*
X0244651Y0048026D01*
X0244631Y0047969D01*
X0244615Y0047910D01*
X0244602Y0047851D01*
X0244593Y0047792D01*
X0244588Y0047731D01*
X0244586Y0047671D01*
M02*
