%
M48
M72
T01C0.01220
T02C0.01378
T03C0.01575
T04C0.01969
T05C0.02362
T06C0.03150
T07C0.03200
T08C0.03600
T09C0.04000
T10C0.04700
T11C0.05512
T12C0.08661
T13C0.09100
T14C0.11024
%
T01
X228629Y79369
X233574Y79208
T02
X225533Y83110
T03
X87225Y92026
X98608Y118266
X118088Y118215
X137609Y139802
X147361Y135133
X155360Y122102
X151614Y118430
X169612Y127125
X177892Y141540
X187316Y145560
X193901Y152210
X193970Y165199
X188215Y165241
X178319Y165323
X188215Y177435
X194011Y177387
X211540Y180301
X220338Y193636
X223989Y197647
X203190Y199676
X177254Y193233
X168802Y186692
X161501Y189783
X156763Y186540
X155489Y196441
X135676Y193664
X131711Y180905
X156261Y176562
X110047Y145076
X95710Y145159
X96732Y157035
X70075Y172475
X59285Y194197
X149762Y42491
X183285Y84202
X187503Y99366
X205006Y93951
X212497Y101991
X214428Y110879
X217225Y122026
X217225Y127026
X217225Y132026
X217225Y137026
X222225Y137026
X227225Y137026
X232225Y137026
X237225Y137026
X237225Y132026
X237225Y127026
X232225Y127026
X232225Y132026
X227225Y132026
X222225Y132026
X222225Y127026
X227225Y127026
X237225Y122026
X236491Y114537
X239004Y100648
X236626Y97913
X237858Y94056
X226356Y93951
X224348Y99776
X240250Y82660
X243627Y80530
X240154Y76912
X231308Y66658
X225970Y72069
X220568Y69316
X218564Y72310
X221031Y55038
X205573Y39329
X242956Y38023
X267019Y51798
X270966Y55401
X275900Y69663
X286333Y59522
X290188Y59848
X260036Y86557
X250700Y98647
X277789Y89552
X291523Y95709
X309431Y93001
X318579Y93073
X309954Y120288
X288477Y122135
X269987Y130736
X269450Y136375
X262409Y123782
X287911Y141732
X259405Y170322
X251372Y170268
X245080Y170394
X244660Y180358
X255337Y181527
X226953Y155508
X206640Y137159
X208609Y129267
X207513Y124315
X203149Y127757
X169704Y99366
X169914Y94036
X244762Y60098
X252058Y64206
X353073Y92433
X353699Y114698
X380385Y81373
X368181Y54343
X363461Y152158
X382037Y182464
X373807Y208405
X346802Y225474
X332332Y197597
X332373Y189658
T04
X327051Y29070
X309715Y30110
X301066Y28904
X305397Y46764
X296761Y46810
X314058Y46672
X322720Y45633
X327060Y63229
X322736Y64089
X314073Y63966
X305367Y64536
X301057Y64832
X296761Y65200
X268241Y47409
X254749Y55846
X235345Y70937
X244493Y77022
X212789Y80706
X211796Y71552
X203327Y80088
X190102Y96589
X210221Y111263
X244874Y106574
X251395Y109219
X245094Y114477
X249929Y122297
X249671Y126190
X250259Y130230
X249929Y137697
X256264Y147525
X255497Y154709
X264266Y155407
X259419Y162324
X251372Y162475
X243946Y154598
X240634Y158250
X210611Y155557
X202531Y155557
X165321Y167385
X152473Y114444
X147714Y111263
X156144Y73604
X246969Y35395
X250909Y38687
X286346Y97197
X286620Y114904
X277643Y130916
X285599Y136355
X286399Y146772
X305845Y146803
X318065Y146761
X318065Y132994
X332516Y153705
X292271Y187211
T05
X36163Y199383
X104360Y175537
X143304Y159456
X197123Y206967
X195319Y214383
X184035Y220456
X178376Y221581
X146895Y218418
X112704Y233054
T06
X24233Y104683
X24233Y114683
X70965Y118246
X80965Y113285
X80965Y123285
X70965Y128246
X80965Y133285
X70965Y138246
X80965Y143285
X70965Y148246
X24233Y156848
X24233Y146848
X317400Y236803
X317400Y270110
X374329Y270110
X374329Y236803
T07
X256685Y71601
X256685Y81601
X197466Y63507
X178466Y63507
T08
X52925Y48276
X52925Y58076
X52925Y65976
X52925Y75776
T09
X66014Y180444
X76014Y180444
X86014Y180444
X85882Y197444
X75882Y197444
X65882Y197444
X65664Y217247
X75664Y217247
X85664Y217247
X85441Y237418
X75441Y237418
X65441Y237418
X54349Y258277
X54349Y268277
X54349Y278277
X90221Y277915
X90221Y267915
X90221Y257915
X129162Y253272
X129162Y243272
X148466Y243395
X148466Y253395
X148466Y263395
X129162Y263272
X169874Y263571
X169874Y253571
X169874Y243571
X189660Y243484
X189660Y253484
X189660Y263484
X209689Y234100
X209689Y224100
X219689Y224100
X229689Y224100
X229689Y234100
X219689Y234100
X248649Y243332
X248649Y253332
X248649Y263332
X267970Y263785
X267970Y253785
X267970Y243785
X155658Y162529
X155658Y152529
X155658Y142529
T10
X19808Y177813
X19808Y197498
X19808Y217183
X19808Y236868
X19808Y256553
X19808Y276238
X50429Y305817
X70114Y305817
X89799Y305817
X109484Y305817
X129169Y305817
X148854Y305817
X169513Y305805
X189198Y305805
X208883Y305805
X228568Y305805
X248253Y305805
X267938Y305805
X288712Y305767
X308397Y305767
T11
X57973Y100274
X57973Y161258
T12
X227144Y118360
T13
X42225Y87876
X42225Y36176
T14
X372225Y17026
X372225Y307026
X17225Y307026
X17225Y17026
M30
