G75*
%MOIN*%
%OFA0B0*%
%FSLAX25Y25*%
%IPPOS*%
%LPD*%
%AMOC8*
5,1,8,0,0,1.08239X$1,22.5*
%
%ADD10C,0.00000*%
%ADD11C,0.00400*%
%ADD12C,0.00300*%
%ADD13C,0.00500*%
%ADD14C,0.00600*%
%ADD15C,0.01600*%
D10*
X0017225Y0002026D02*
X0372225Y0002026D01*
X0372587Y0002030D01*
X0372950Y0002044D01*
X0373312Y0002065D01*
X0373673Y0002096D01*
X0374033Y0002135D01*
X0374392Y0002183D01*
X0374750Y0002240D01*
X0375107Y0002305D01*
X0375462Y0002379D01*
X0375815Y0002462D01*
X0376166Y0002553D01*
X0376514Y0002652D01*
X0376860Y0002760D01*
X0377204Y0002876D01*
X0377544Y0003001D01*
X0377881Y0003133D01*
X0378215Y0003274D01*
X0378546Y0003423D01*
X0378873Y0003580D01*
X0379196Y0003744D01*
X0379515Y0003916D01*
X0379829Y0004096D01*
X0380140Y0004284D01*
X0380445Y0004479D01*
X0380746Y0004681D01*
X0381042Y0004891D01*
X0381332Y0005107D01*
X0381618Y0005331D01*
X0381898Y0005561D01*
X0382172Y0005798D01*
X0382440Y0006042D01*
X0382703Y0006292D01*
X0382959Y0006548D01*
X0383209Y0006811D01*
X0383453Y0007079D01*
X0383690Y0007353D01*
X0383920Y0007633D01*
X0384144Y0007919D01*
X0384360Y0008209D01*
X0384570Y0008505D01*
X0384772Y0008806D01*
X0384967Y0009111D01*
X0385155Y0009422D01*
X0385335Y0009736D01*
X0385507Y0010055D01*
X0385671Y0010378D01*
X0385828Y0010705D01*
X0385977Y0011036D01*
X0386118Y0011370D01*
X0386250Y0011707D01*
X0386375Y0012047D01*
X0386491Y0012391D01*
X0386599Y0012737D01*
X0386698Y0013085D01*
X0386789Y0013436D01*
X0386872Y0013789D01*
X0386946Y0014144D01*
X0387011Y0014501D01*
X0387068Y0014859D01*
X0387116Y0015218D01*
X0387155Y0015578D01*
X0387186Y0015939D01*
X0387207Y0016301D01*
X0387221Y0016664D01*
X0387225Y0017026D01*
X0387225Y0307026D01*
X0387221Y0307388D01*
X0387207Y0307751D01*
X0387186Y0308113D01*
X0387155Y0308474D01*
X0387116Y0308834D01*
X0387068Y0309193D01*
X0387011Y0309551D01*
X0386946Y0309908D01*
X0386872Y0310263D01*
X0386789Y0310616D01*
X0386698Y0310967D01*
X0386599Y0311315D01*
X0386491Y0311661D01*
X0386375Y0312005D01*
X0386250Y0312345D01*
X0386118Y0312682D01*
X0385977Y0313016D01*
X0385828Y0313347D01*
X0385671Y0313674D01*
X0385507Y0313997D01*
X0385335Y0314316D01*
X0385155Y0314630D01*
X0384967Y0314941D01*
X0384772Y0315246D01*
X0384570Y0315547D01*
X0384360Y0315843D01*
X0384144Y0316133D01*
X0383920Y0316419D01*
X0383690Y0316699D01*
X0383453Y0316973D01*
X0383209Y0317241D01*
X0382959Y0317504D01*
X0382703Y0317760D01*
X0382440Y0318010D01*
X0382172Y0318254D01*
X0381898Y0318491D01*
X0381618Y0318721D01*
X0381332Y0318945D01*
X0381042Y0319161D01*
X0380746Y0319371D01*
X0380445Y0319573D01*
X0380140Y0319768D01*
X0379829Y0319956D01*
X0379515Y0320136D01*
X0379196Y0320308D01*
X0378873Y0320472D01*
X0378546Y0320629D01*
X0378215Y0320778D01*
X0377881Y0320919D01*
X0377544Y0321051D01*
X0377204Y0321176D01*
X0376860Y0321292D01*
X0376514Y0321400D01*
X0376166Y0321499D01*
X0375815Y0321590D01*
X0375462Y0321673D01*
X0375107Y0321747D01*
X0374750Y0321812D01*
X0374392Y0321869D01*
X0374033Y0321917D01*
X0373673Y0321956D01*
X0373312Y0321987D01*
X0372950Y0322008D01*
X0372587Y0322022D01*
X0372225Y0322026D01*
X0017225Y0322026D01*
X0016863Y0322022D01*
X0016500Y0322008D01*
X0016138Y0321987D01*
X0015777Y0321956D01*
X0015417Y0321917D01*
X0015058Y0321869D01*
X0014700Y0321812D01*
X0014343Y0321747D01*
X0013988Y0321673D01*
X0013635Y0321590D01*
X0013284Y0321499D01*
X0012936Y0321400D01*
X0012590Y0321292D01*
X0012246Y0321176D01*
X0011906Y0321051D01*
X0011569Y0320919D01*
X0011235Y0320778D01*
X0010904Y0320629D01*
X0010577Y0320472D01*
X0010254Y0320308D01*
X0009935Y0320136D01*
X0009621Y0319956D01*
X0009310Y0319768D01*
X0009005Y0319573D01*
X0008704Y0319371D01*
X0008408Y0319161D01*
X0008118Y0318945D01*
X0007832Y0318721D01*
X0007552Y0318491D01*
X0007278Y0318254D01*
X0007010Y0318010D01*
X0006747Y0317760D01*
X0006491Y0317504D01*
X0006241Y0317241D01*
X0005997Y0316973D01*
X0005760Y0316699D01*
X0005530Y0316419D01*
X0005306Y0316133D01*
X0005090Y0315843D01*
X0004880Y0315547D01*
X0004678Y0315246D01*
X0004483Y0314941D01*
X0004295Y0314630D01*
X0004115Y0314316D01*
X0003943Y0313997D01*
X0003779Y0313674D01*
X0003622Y0313347D01*
X0003473Y0313016D01*
X0003332Y0312682D01*
X0003200Y0312345D01*
X0003075Y0312005D01*
X0002959Y0311661D01*
X0002851Y0311315D01*
X0002752Y0310967D01*
X0002661Y0310616D01*
X0002578Y0310263D01*
X0002504Y0309908D01*
X0002439Y0309551D01*
X0002382Y0309193D01*
X0002334Y0308834D01*
X0002295Y0308474D01*
X0002264Y0308113D01*
X0002243Y0307751D01*
X0002229Y0307388D01*
X0002225Y0307026D01*
X0002225Y0017026D01*
X0002229Y0016664D01*
X0002243Y0016301D01*
X0002264Y0015939D01*
X0002295Y0015578D01*
X0002334Y0015218D01*
X0002382Y0014859D01*
X0002439Y0014501D01*
X0002504Y0014144D01*
X0002578Y0013789D01*
X0002661Y0013436D01*
X0002752Y0013085D01*
X0002851Y0012737D01*
X0002959Y0012391D01*
X0003075Y0012047D01*
X0003200Y0011707D01*
X0003332Y0011370D01*
X0003473Y0011036D01*
X0003622Y0010705D01*
X0003779Y0010378D01*
X0003943Y0010055D01*
X0004115Y0009736D01*
X0004295Y0009422D01*
X0004483Y0009111D01*
X0004678Y0008806D01*
X0004880Y0008505D01*
X0005090Y0008209D01*
X0005306Y0007919D01*
X0005530Y0007633D01*
X0005760Y0007353D01*
X0005997Y0007079D01*
X0006241Y0006811D01*
X0006491Y0006548D01*
X0006747Y0006292D01*
X0007010Y0006042D01*
X0007278Y0005798D01*
X0007552Y0005561D01*
X0007832Y0005331D01*
X0008118Y0005107D01*
X0008408Y0004891D01*
X0008704Y0004681D01*
X0009005Y0004479D01*
X0009310Y0004284D01*
X0009621Y0004096D01*
X0009935Y0003916D01*
X0010254Y0003744D01*
X0010577Y0003580D01*
X0010904Y0003423D01*
X0011235Y0003274D01*
X0011569Y0003133D01*
X0011906Y0003001D01*
X0012246Y0002876D01*
X0012590Y0002760D01*
X0012936Y0002652D01*
X0013284Y0002553D01*
X0013635Y0002462D01*
X0013988Y0002379D01*
X0014343Y0002305D01*
X0014700Y0002240D01*
X0015058Y0002183D01*
X0015417Y0002135D01*
X0015777Y0002096D01*
X0016138Y0002065D01*
X0016500Y0002044D01*
X0016863Y0002030D01*
X0017225Y0002026D01*
D11*
X0031805Y0171608D02*
X0037009Y0171608D01*
X0037009Y0174210D01*
X0036142Y0175078D01*
X0034407Y0175078D01*
X0033540Y0174210D01*
X0033540Y0171608D01*
X0031805Y0176765D02*
X0031805Y0179367D01*
X0032672Y0180234D01*
X0036142Y0180234D01*
X0037009Y0179367D01*
X0037009Y0176765D01*
X0031805Y0176765D01*
X0031805Y0181921D02*
X0035275Y0185391D01*
X0036142Y0185391D01*
X0037009Y0184523D01*
X0037009Y0182788D01*
X0036142Y0181921D01*
X0031805Y0181921D02*
X0031805Y0185391D01*
X0031590Y0191290D02*
X0036794Y0191290D01*
X0036794Y0193893D01*
X0035927Y0194760D01*
X0034192Y0194760D01*
X0033324Y0193893D01*
X0033324Y0191290D01*
X0031590Y0196447D02*
X0031590Y0199049D01*
X0032457Y0199916D01*
X0035927Y0199916D01*
X0036794Y0199049D01*
X0036794Y0196447D01*
X0031590Y0196447D01*
X0032457Y0201603D02*
X0031590Y0202471D01*
X0031590Y0204205D01*
X0032457Y0205073D01*
X0033324Y0205073D01*
X0034192Y0204205D01*
X0034192Y0203338D01*
X0034192Y0204205D02*
X0035059Y0205073D01*
X0035927Y0205073D01*
X0036794Y0204205D01*
X0036794Y0202471D01*
X0035927Y0201603D01*
X0036363Y0210111D02*
X0031159Y0210111D01*
X0032893Y0210111D02*
X0032893Y0212713D01*
X0033761Y0213580D01*
X0035496Y0213580D01*
X0036363Y0212713D01*
X0036363Y0210111D01*
X0036363Y0215267D02*
X0031159Y0215267D01*
X0031159Y0217869D01*
X0032026Y0218737D01*
X0035496Y0218737D01*
X0036363Y0217869D01*
X0036363Y0215267D01*
X0033761Y0220423D02*
X0033761Y0223893D01*
X0036363Y0223026D02*
X0033761Y0220423D01*
X0031159Y0223026D02*
X0036363Y0223026D01*
X0036708Y0249561D02*
X0037576Y0250428D01*
X0037576Y0252163D01*
X0036708Y0253030D01*
X0035841Y0253030D01*
X0034973Y0252163D01*
X0034106Y0253030D01*
X0033239Y0253030D01*
X0032371Y0252163D01*
X0032371Y0250428D01*
X0033239Y0249561D01*
X0034973Y0251296D02*
X0034973Y0252163D01*
X0034106Y0254717D02*
X0032371Y0256452D01*
X0034106Y0258187D01*
X0037576Y0258187D01*
X0036708Y0259874D02*
X0037576Y0260741D01*
X0037576Y0262476D01*
X0036708Y0263343D01*
X0035841Y0263343D01*
X0034973Y0262476D01*
X0034106Y0263343D01*
X0033239Y0263343D01*
X0032371Y0262476D01*
X0032371Y0260741D01*
X0033239Y0259874D01*
X0034973Y0261608D02*
X0034973Y0262476D01*
X0036315Y0269876D02*
X0032845Y0269876D01*
X0031978Y0270743D01*
X0031978Y0272478D01*
X0032845Y0273345D01*
X0034580Y0273345D01*
X0034580Y0271611D01*
X0036315Y0273345D02*
X0037182Y0272478D01*
X0037182Y0270743D01*
X0036315Y0269876D01*
X0037182Y0275032D02*
X0031978Y0275032D01*
X0031978Y0278502D02*
X0037182Y0275032D01*
X0037182Y0278502D02*
X0031978Y0278502D01*
X0031978Y0280189D02*
X0031978Y0282791D01*
X0032845Y0283658D01*
X0036315Y0283658D01*
X0037182Y0282791D01*
X0037182Y0280189D01*
X0031978Y0280189D01*
X0044181Y0288474D02*
X0044181Y0293679D01*
X0046784Y0291076D01*
X0043314Y0291076D01*
X0048470Y0290209D02*
X0048470Y0289341D01*
X0049338Y0288474D01*
X0051940Y0288474D01*
X0051940Y0293679D01*
X0049338Y0293679D01*
X0048470Y0292811D01*
X0048470Y0291944D01*
X0049338Y0291076D01*
X0051940Y0291076D01*
X0053627Y0291076D02*
X0054494Y0290209D01*
X0057096Y0290209D01*
X0057096Y0288474D02*
X0057096Y0293679D01*
X0054494Y0293679D01*
X0053627Y0292811D01*
X0053627Y0291076D01*
X0049338Y0291076D02*
X0048470Y0290209D01*
X0063190Y0290362D02*
X0063190Y0289495D01*
X0064058Y0288627D01*
X0065792Y0288627D01*
X0066660Y0289495D01*
X0068347Y0289495D02*
X0069214Y0288627D01*
X0070949Y0288627D01*
X0071816Y0289495D01*
X0071816Y0292964D01*
X0070949Y0293832D01*
X0069214Y0293832D01*
X0068347Y0292964D01*
X0066660Y0292964D02*
X0065792Y0293832D01*
X0064058Y0293832D01*
X0063190Y0292964D01*
X0063190Y0292097D01*
X0064058Y0291229D01*
X0063190Y0290362D01*
X0064058Y0291229D02*
X0064925Y0291229D01*
X0073503Y0291229D02*
X0074370Y0290362D01*
X0076973Y0290362D01*
X0076973Y0288627D02*
X0076973Y0293832D01*
X0074370Y0293832D01*
X0073503Y0292964D01*
X0073503Y0291229D01*
X0083196Y0290688D02*
X0083196Y0289821D01*
X0084064Y0288953D01*
X0085799Y0288953D01*
X0086666Y0289821D01*
X0088353Y0290688D02*
X0088353Y0294158D01*
X0086666Y0293290D02*
X0085799Y0294158D01*
X0084064Y0294158D01*
X0083196Y0293290D01*
X0083196Y0292423D01*
X0084064Y0291555D01*
X0083196Y0290688D01*
X0084064Y0291555D02*
X0084931Y0291555D01*
X0088353Y0290688D02*
X0090088Y0288953D01*
X0091822Y0290688D01*
X0091822Y0294158D01*
X0093509Y0293290D02*
X0093509Y0292423D01*
X0094377Y0291555D01*
X0093509Y0290688D01*
X0093509Y0289821D01*
X0094377Y0288953D01*
X0096111Y0288953D01*
X0096979Y0289821D01*
X0095244Y0291555D02*
X0094377Y0291555D01*
X0093509Y0293290D02*
X0094377Y0294158D01*
X0096111Y0294158D01*
X0096979Y0293290D01*
X0101966Y0293514D02*
X0101966Y0290045D01*
X0102833Y0289177D01*
X0105435Y0289177D01*
X0105435Y0294382D01*
X0102833Y0294382D01*
X0101966Y0293514D01*
X0107122Y0294382D02*
X0107122Y0289177D01*
X0110592Y0294382D01*
X0110592Y0289177D01*
X0112278Y0290045D02*
X0112278Y0291780D01*
X0114013Y0291780D01*
X0112278Y0293514D02*
X0113146Y0294382D01*
X0114881Y0294382D01*
X0115748Y0293514D01*
X0115748Y0290045D01*
X0114881Y0289177D01*
X0113146Y0289177D01*
X0112278Y0290045D01*
X0122237Y0288627D02*
X0125707Y0288627D01*
X0122237Y0292097D01*
X0122237Y0292964D01*
X0123105Y0293832D01*
X0124840Y0293832D01*
X0125707Y0292964D01*
X0127394Y0292964D02*
X0128261Y0293832D01*
X0129996Y0293832D01*
X0130863Y0292964D01*
X0130863Y0289495D01*
X0129996Y0288627D01*
X0128261Y0288627D01*
X0127394Y0289495D01*
X0132550Y0291229D02*
X0133418Y0290362D01*
X0136020Y0290362D01*
X0136020Y0288627D02*
X0136020Y0293832D01*
X0133418Y0293832D01*
X0132550Y0292964D01*
X0132550Y0291229D01*
X0141992Y0288627D02*
X0145461Y0288627D01*
X0143727Y0288627D02*
X0143727Y0293832D01*
X0145461Y0292097D01*
X0147148Y0292964D02*
X0148016Y0293832D01*
X0149750Y0293832D01*
X0150618Y0292964D01*
X0150618Y0289495D01*
X0149750Y0288627D01*
X0148016Y0288627D01*
X0147148Y0289495D01*
X0152305Y0291229D02*
X0153172Y0290362D01*
X0155774Y0290362D01*
X0155774Y0288627D02*
X0155774Y0293832D01*
X0153172Y0293832D01*
X0152305Y0292964D01*
X0152305Y0291229D01*
X0162747Y0292778D02*
X0162747Y0289308D01*
X0163615Y0288441D01*
X0165350Y0288441D01*
X0166217Y0289308D01*
X0162747Y0292778D01*
X0163615Y0293645D01*
X0165350Y0293645D01*
X0166217Y0292778D01*
X0166217Y0289308D01*
X0167904Y0289308D02*
X0168771Y0288441D01*
X0170506Y0288441D01*
X0171373Y0289308D01*
X0171373Y0292778D01*
X0170506Y0293645D01*
X0168771Y0293645D01*
X0167904Y0292778D01*
X0173060Y0292778D02*
X0173060Y0291043D01*
X0173928Y0290176D01*
X0176530Y0290176D01*
X0176530Y0288441D02*
X0176530Y0293645D01*
X0173928Y0293645D01*
X0173060Y0292778D01*
X0182115Y0292997D02*
X0182982Y0293864D01*
X0184717Y0293864D01*
X0185584Y0292997D01*
X0187271Y0292997D02*
X0187271Y0292130D01*
X0188139Y0291262D01*
X0187271Y0290395D01*
X0187271Y0289527D01*
X0188139Y0288660D01*
X0190741Y0288660D01*
X0190741Y0293864D01*
X0188139Y0293864D01*
X0187271Y0292997D01*
X0188139Y0291262D02*
X0190741Y0291262D01*
X0192428Y0291262D02*
X0193295Y0290395D01*
X0195897Y0290395D01*
X0195897Y0288660D02*
X0195897Y0293864D01*
X0193295Y0293864D01*
X0192428Y0292997D01*
X0192428Y0291262D01*
X0185584Y0288660D02*
X0182115Y0292130D01*
X0182115Y0292997D01*
X0182115Y0288660D02*
X0185584Y0288660D01*
X0201973Y0289541D02*
X0202840Y0288674D01*
X0204575Y0288674D01*
X0205442Y0289541D01*
X0207129Y0290408D02*
X0207129Y0293878D01*
X0205442Y0293011D02*
X0204575Y0293878D01*
X0202840Y0293878D01*
X0201973Y0293011D01*
X0201973Y0292143D01*
X0202840Y0291276D01*
X0201973Y0290408D01*
X0201973Y0289541D01*
X0202840Y0291276D02*
X0203707Y0291276D01*
X0207129Y0290408D02*
X0208864Y0288674D01*
X0210599Y0290408D01*
X0210599Y0293878D01*
X0212285Y0293011D02*
X0212285Y0292143D01*
X0213153Y0291276D01*
X0212285Y0290408D01*
X0212285Y0289541D01*
X0213153Y0288674D01*
X0214888Y0288674D01*
X0215755Y0289541D01*
X0214020Y0291276D02*
X0213153Y0291276D01*
X0212285Y0293011D02*
X0213153Y0293878D01*
X0214888Y0293878D01*
X0215755Y0293011D01*
X0222018Y0293390D02*
X0222018Y0289921D01*
X0222886Y0289053D01*
X0225488Y0289053D01*
X0225488Y0294258D01*
X0222886Y0294258D01*
X0222018Y0293390D01*
X0227175Y0294258D02*
X0227175Y0289053D01*
X0230644Y0294258D01*
X0230644Y0289053D01*
X0232331Y0289921D02*
X0232331Y0291655D01*
X0234066Y0291655D01*
X0235801Y0289921D02*
X0235801Y0293390D01*
X0234933Y0294258D01*
X0233198Y0294258D01*
X0232331Y0293390D01*
X0232331Y0289921D02*
X0233198Y0289053D01*
X0234933Y0289053D01*
X0235801Y0289921D01*
X0241086Y0289776D02*
X0241086Y0290643D01*
X0241953Y0291511D01*
X0244555Y0291511D01*
X0244555Y0289776D01*
X0243688Y0288908D01*
X0241953Y0288908D01*
X0241086Y0289776D01*
X0242821Y0293245D02*
X0244555Y0291511D01*
X0246242Y0289776D02*
X0246242Y0293245D01*
X0247110Y0294113D01*
X0249712Y0294113D01*
X0249712Y0288908D01*
X0247110Y0288908D01*
X0246242Y0289776D01*
X0242821Y0293245D02*
X0241086Y0294113D01*
X0251399Y0293245D02*
X0251399Y0291511D01*
X0252266Y0290643D01*
X0254868Y0290643D01*
X0254868Y0288908D02*
X0254868Y0294113D01*
X0252266Y0294113D01*
X0251399Y0293245D01*
X0261074Y0294485D02*
X0264544Y0294485D01*
X0264544Y0291883D01*
X0262809Y0292750D01*
X0261941Y0292750D01*
X0261074Y0291883D01*
X0261074Y0290148D01*
X0261941Y0289281D01*
X0263676Y0289281D01*
X0264544Y0290148D01*
X0266230Y0290148D02*
X0266230Y0293618D01*
X0267098Y0294485D01*
X0269700Y0294485D01*
X0269700Y0289281D01*
X0267098Y0289281D01*
X0266230Y0290148D01*
X0271387Y0291883D02*
X0272254Y0291016D01*
X0274856Y0291016D01*
X0274856Y0289281D02*
X0274856Y0294485D01*
X0272254Y0294485D01*
X0271387Y0293618D01*
X0271387Y0291883D01*
X0281734Y0290541D02*
X0281734Y0294011D01*
X0282602Y0294878D01*
X0285204Y0294878D01*
X0285204Y0289674D01*
X0282602Y0289674D01*
X0281734Y0290541D01*
X0286891Y0289674D02*
X0286891Y0294878D01*
X0290360Y0294878D02*
X0286891Y0289674D01*
X0290360Y0289674D02*
X0290360Y0294878D01*
X0292047Y0294011D02*
X0292914Y0294878D01*
X0294649Y0294878D01*
X0295517Y0294011D01*
X0295517Y0290541D01*
X0294649Y0289674D01*
X0292914Y0289674D01*
X0292047Y0290541D01*
X0292047Y0292276D01*
X0293782Y0292276D01*
X0301495Y0293741D02*
X0301495Y0290272D01*
X0302363Y0289404D01*
X0304965Y0289404D01*
X0304965Y0294609D01*
X0302363Y0294609D01*
X0301495Y0293741D01*
X0306652Y0293741D02*
X0306652Y0290272D01*
X0307519Y0289404D01*
X0310121Y0289404D01*
X0310121Y0294609D01*
X0307519Y0294609D01*
X0306652Y0293741D01*
X0311808Y0294609D02*
X0311808Y0291139D01*
X0313543Y0289404D01*
X0315278Y0291139D01*
X0315278Y0294609D01*
X0037576Y0254717D02*
X0034106Y0254717D01*
D12*
X0174864Y0106294D02*
X0176315Y0104843D01*
X0174380Y0104843D01*
X0174864Y0106294D02*
X0174864Y0103391D01*
X0177327Y0103875D02*
X0177810Y0103391D01*
X0178778Y0103391D01*
X0179262Y0103875D01*
X0180273Y0103875D02*
X0180757Y0103391D01*
X0181724Y0103391D01*
X0182208Y0103875D01*
X0182208Y0105810D01*
X0181724Y0106294D01*
X0180757Y0106294D01*
X0180273Y0105810D01*
X0179262Y0105810D02*
X0178778Y0106294D01*
X0177810Y0106294D01*
X0177327Y0105810D01*
X0177327Y0105326D01*
X0177810Y0104843D01*
X0177327Y0104359D01*
X0177327Y0103875D01*
X0177810Y0104843D02*
X0178294Y0104843D01*
X0178486Y0097314D02*
X0177518Y0097314D01*
X0177035Y0096830D01*
X0177035Y0096346D01*
X0177518Y0095863D01*
X0177035Y0095379D01*
X0177035Y0094895D01*
X0177518Y0094411D01*
X0178486Y0094411D01*
X0178970Y0094895D01*
X0179981Y0094895D02*
X0180465Y0094411D01*
X0181432Y0094411D01*
X0181916Y0094895D01*
X0181916Y0096830D01*
X0181432Y0097314D01*
X0180465Y0097314D01*
X0179981Y0096830D01*
X0178970Y0096830D02*
X0178486Y0097314D01*
X0178002Y0095863D02*
X0177518Y0095863D01*
X0176023Y0096346D02*
X0175056Y0097314D01*
X0175056Y0094411D01*
X0176023Y0094411D02*
X0174088Y0094411D01*
X0174453Y0088771D02*
X0174937Y0088288D01*
X0174453Y0088771D02*
X0173485Y0088771D01*
X0173002Y0088288D01*
X0173002Y0087804D01*
X0174937Y0085869D01*
X0173002Y0085869D01*
X0171990Y0086353D02*
X0171990Y0086836D01*
X0171506Y0087320D01*
X0170539Y0087320D01*
X0170055Y0086836D01*
X0170055Y0086353D01*
X0170539Y0085869D01*
X0171506Y0085869D01*
X0171990Y0086353D01*
X0171506Y0087320D02*
X0171990Y0087804D01*
X0171990Y0088288D01*
X0171506Y0088771D01*
X0170539Y0088771D01*
X0170055Y0088288D01*
X0170055Y0087804D01*
X0170539Y0087320D01*
X0175948Y0087320D02*
X0176432Y0086836D01*
X0177883Y0086836D01*
X0177883Y0085869D02*
X0177883Y0088771D01*
X0176432Y0088771D01*
X0175948Y0088288D01*
X0175948Y0087320D01*
X0176916Y0086836D02*
X0175948Y0085869D01*
X0189137Y0088062D02*
X0191072Y0086127D01*
X0191072Y0085643D01*
X0192084Y0085643D02*
X0194019Y0085643D01*
X0192084Y0087578D01*
X0192084Y0088062D01*
X0192567Y0088545D01*
X0193535Y0088545D01*
X0194019Y0088062D01*
X0195030Y0088062D02*
X0195514Y0088545D01*
X0196481Y0088545D01*
X0196965Y0088062D01*
X0196965Y0086127D01*
X0196481Y0085643D01*
X0195514Y0085643D01*
X0195030Y0086127D01*
X0191072Y0088545D02*
X0189137Y0088545D01*
X0189137Y0088062D01*
X0189364Y0081206D02*
X0188881Y0080723D01*
X0188881Y0080239D01*
X0189364Y0079755D01*
X0190332Y0079755D01*
X0190816Y0080239D01*
X0190816Y0080723D01*
X0190332Y0081206D01*
X0189364Y0081206D01*
X0189364Y0079755D02*
X0188881Y0079271D01*
X0188881Y0078788D01*
X0189364Y0078304D01*
X0190332Y0078304D01*
X0190816Y0078788D01*
X0190816Y0079271D01*
X0190332Y0079755D01*
X0191827Y0080239D02*
X0191827Y0080723D01*
X0192311Y0081206D01*
X0193278Y0081206D01*
X0193762Y0080723D01*
X0194774Y0080723D02*
X0195257Y0081206D01*
X0196225Y0081206D01*
X0196709Y0080723D01*
X0196709Y0078788D01*
X0196225Y0078304D01*
X0195257Y0078304D01*
X0194774Y0078788D01*
X0193762Y0078304D02*
X0191827Y0080239D01*
X0191827Y0078304D02*
X0193762Y0078304D01*
X0375968Y0094677D02*
X0375968Y0096612D01*
X0375968Y0097624D02*
X0375968Y0099075D01*
X0376452Y0099559D01*
X0378387Y0099559D01*
X0378870Y0099075D01*
X0378870Y0097624D01*
X0375968Y0097624D01*
X0375968Y0100570D02*
X0377903Y0102505D01*
X0378387Y0102505D01*
X0378870Y0102021D01*
X0378870Y0101054D01*
X0378387Y0100570D01*
X0375968Y0100570D02*
X0375968Y0102505D01*
X0375968Y0094677D02*
X0378870Y0094677D01*
X0378989Y0117583D02*
X0376086Y0117583D01*
X0376086Y0119518D01*
X0376086Y0120529D02*
X0376086Y0121981D01*
X0376570Y0122464D01*
X0378505Y0122464D01*
X0378989Y0121981D01*
X0378989Y0120529D01*
X0376086Y0120529D01*
X0376086Y0123476D02*
X0376086Y0125411D01*
X0376086Y0124443D02*
X0378989Y0124443D01*
X0378021Y0123476D01*
X0378912Y0137874D02*
X0376009Y0137874D01*
X0376009Y0139809D01*
X0376009Y0140821D02*
X0376009Y0142272D01*
X0376493Y0142756D01*
X0378428Y0142756D01*
X0378912Y0142272D01*
X0378912Y0140821D01*
X0376009Y0140821D01*
X0376493Y0143767D02*
X0376009Y0144251D01*
X0376009Y0145219D01*
X0376493Y0145702D01*
X0376977Y0145702D01*
X0377461Y0145219D01*
X0377461Y0144735D01*
X0377461Y0145219D02*
X0377944Y0145702D01*
X0378428Y0145702D01*
X0378912Y0145219D01*
X0378912Y0144251D01*
X0378428Y0143767D01*
X0367571Y0237060D02*
X0366603Y0237060D01*
X0366119Y0237544D01*
X0366119Y0239479D01*
X0366603Y0239962D01*
X0367571Y0239962D01*
X0368054Y0239479D01*
X0368054Y0237544D01*
X0367571Y0237060D01*
X0365108Y0237544D02*
X0364624Y0237060D01*
X0363173Y0237060D01*
X0363173Y0238995D01*
X0362161Y0238995D02*
X0361194Y0238995D01*
X0361677Y0239479D02*
X0361677Y0237544D01*
X0361194Y0237060D01*
X0360197Y0238511D02*
X0358262Y0238511D01*
X0365108Y0238995D02*
X0365108Y0237544D01*
X0335108Y0237060D02*
X0334140Y0237060D01*
X0334624Y0237060D02*
X0334624Y0239962D01*
X0335108Y0239962D02*
X0334140Y0239962D01*
X0333143Y0238995D02*
X0331692Y0238995D01*
X0331208Y0238511D01*
X0331208Y0237060D01*
X0330197Y0238511D02*
X0328262Y0238511D01*
X0333143Y0238995D02*
X0333143Y0237060D01*
X0333143Y0267060D02*
X0333143Y0268995D01*
X0331692Y0268995D01*
X0331208Y0268511D01*
X0331208Y0267060D01*
X0330197Y0268511D02*
X0328262Y0268511D01*
X0329229Y0267544D02*
X0329229Y0269479D01*
X0334140Y0269962D02*
X0335108Y0269962D01*
X0334624Y0269962D02*
X0334624Y0267060D01*
X0335108Y0267060D02*
X0334140Y0267060D01*
X0358262Y0268511D02*
X0360197Y0268511D01*
X0361194Y0268995D02*
X0362161Y0268995D01*
X0361677Y0269479D02*
X0361677Y0267544D01*
X0361194Y0267060D01*
X0363173Y0267060D02*
X0363173Y0268995D01*
X0365108Y0268995D02*
X0365108Y0267544D01*
X0364624Y0267060D01*
X0363173Y0267060D01*
X0366119Y0267544D02*
X0366119Y0269479D01*
X0366603Y0269962D01*
X0367571Y0269962D01*
X0368054Y0269479D01*
X0368054Y0267544D01*
X0367571Y0267060D01*
X0366603Y0267060D01*
X0366119Y0267544D01*
X0359229Y0267544D02*
X0359229Y0269479D01*
D13*
X0379329Y0275110D02*
X0379329Y0231803D01*
X0312400Y0231803D01*
X0312400Y0275110D01*
X0379329Y0275110D01*
X0336421Y0060349D02*
X0283035Y0060349D01*
X0283035Y0007987D01*
X0283035Y0003656D01*
X0288940Y0003656D01*
X0289728Y0005349D01*
X0309728Y0007849D01*
X0329728Y0005349D01*
X0330515Y0003656D01*
X0336421Y0003656D01*
X0336421Y0060349D01*
X0038878Y0108266D02*
X0038880Y0108440D01*
X0038887Y0108614D01*
X0038897Y0108787D01*
X0038912Y0108961D01*
X0038931Y0109134D01*
X0038955Y0109306D01*
X0038982Y0109478D01*
X0039014Y0109649D01*
X0039050Y0109819D01*
X0039090Y0109988D01*
X0039135Y0110156D01*
X0039183Y0110323D01*
X0039236Y0110489D01*
X0039292Y0110654D01*
X0039353Y0110817D01*
X0039417Y0110978D01*
X0039486Y0111138D01*
X0039558Y0111296D01*
X0039635Y0111452D01*
X0039715Y0111607D01*
X0039799Y0111759D01*
X0039886Y0111909D01*
X0039978Y0112058D01*
X0040072Y0112203D01*
X0040171Y0112347D01*
X0040273Y0112488D01*
X0040378Y0112626D01*
X0040487Y0112762D01*
X0040599Y0112895D01*
X0040714Y0113025D01*
X0040832Y0113153D01*
X0040954Y0113277D01*
X0041078Y0113399D01*
X0041206Y0113517D01*
X0041336Y0113632D01*
X0041469Y0113744D01*
X0041605Y0113853D01*
X0041743Y0113958D01*
X0041884Y0114060D01*
X0042028Y0114159D01*
X0042173Y0114253D01*
X0042322Y0114345D01*
X0042472Y0114432D01*
X0042624Y0114516D01*
X0042779Y0114596D01*
X0042935Y0114673D01*
X0043093Y0114745D01*
X0043253Y0114814D01*
X0043414Y0114878D01*
X0043577Y0114939D01*
X0043742Y0114995D01*
X0043908Y0115048D01*
X0044075Y0115096D01*
X0044243Y0115141D01*
X0044412Y0115181D01*
X0044582Y0115217D01*
X0044753Y0115249D01*
X0044925Y0115276D01*
X0045097Y0115300D01*
X0045270Y0115319D01*
X0045444Y0115334D01*
X0045617Y0115344D01*
X0045791Y0115351D01*
X0045965Y0115353D01*
X0046139Y0115351D01*
X0046313Y0115344D01*
X0046486Y0115334D01*
X0046660Y0115319D01*
X0046833Y0115300D01*
X0047005Y0115276D01*
X0047177Y0115249D01*
X0047348Y0115217D01*
X0047518Y0115181D01*
X0047687Y0115141D01*
X0047855Y0115096D01*
X0048022Y0115048D01*
X0048188Y0114995D01*
X0048353Y0114939D01*
X0048516Y0114878D01*
X0048677Y0114814D01*
X0048837Y0114745D01*
X0048995Y0114673D01*
X0049151Y0114596D01*
X0049306Y0114516D01*
X0049458Y0114432D01*
X0049608Y0114345D01*
X0049757Y0114253D01*
X0049902Y0114159D01*
X0050046Y0114060D01*
X0050187Y0113958D01*
X0050325Y0113853D01*
X0050461Y0113744D01*
X0050594Y0113632D01*
X0050724Y0113517D01*
X0050852Y0113399D01*
X0050976Y0113277D01*
X0051098Y0113153D01*
X0051216Y0113025D01*
X0051331Y0112895D01*
X0051443Y0112762D01*
X0051552Y0112626D01*
X0051657Y0112488D01*
X0051759Y0112347D01*
X0051858Y0112203D01*
X0051952Y0112058D01*
X0052044Y0111909D01*
X0052131Y0111759D01*
X0052215Y0111607D01*
X0052295Y0111452D01*
X0052372Y0111296D01*
X0052444Y0111138D01*
X0052513Y0110978D01*
X0052577Y0110817D01*
X0052638Y0110654D01*
X0052694Y0110489D01*
X0052747Y0110323D01*
X0052795Y0110156D01*
X0052840Y0109988D01*
X0052880Y0109819D01*
X0052916Y0109649D01*
X0052948Y0109478D01*
X0052975Y0109306D01*
X0052999Y0109134D01*
X0053018Y0108961D01*
X0053033Y0108787D01*
X0053043Y0108614D01*
X0053050Y0108440D01*
X0053052Y0108266D01*
X0053050Y0108092D01*
X0053043Y0107918D01*
X0053033Y0107745D01*
X0053018Y0107571D01*
X0052999Y0107398D01*
X0052975Y0107226D01*
X0052948Y0107054D01*
X0052916Y0106883D01*
X0052880Y0106713D01*
X0052840Y0106544D01*
X0052795Y0106376D01*
X0052747Y0106209D01*
X0052694Y0106043D01*
X0052638Y0105878D01*
X0052577Y0105715D01*
X0052513Y0105554D01*
X0052444Y0105394D01*
X0052372Y0105236D01*
X0052295Y0105080D01*
X0052215Y0104925D01*
X0052131Y0104773D01*
X0052044Y0104623D01*
X0051952Y0104474D01*
X0051858Y0104329D01*
X0051759Y0104185D01*
X0051657Y0104044D01*
X0051552Y0103906D01*
X0051443Y0103770D01*
X0051331Y0103637D01*
X0051216Y0103507D01*
X0051098Y0103379D01*
X0050976Y0103255D01*
X0050852Y0103133D01*
X0050724Y0103015D01*
X0050594Y0102900D01*
X0050461Y0102788D01*
X0050325Y0102679D01*
X0050187Y0102574D01*
X0050046Y0102472D01*
X0049902Y0102373D01*
X0049757Y0102279D01*
X0049608Y0102187D01*
X0049458Y0102100D01*
X0049306Y0102016D01*
X0049151Y0101936D01*
X0048995Y0101859D01*
X0048837Y0101787D01*
X0048677Y0101718D01*
X0048516Y0101654D01*
X0048353Y0101593D01*
X0048188Y0101537D01*
X0048022Y0101484D01*
X0047855Y0101436D01*
X0047687Y0101391D01*
X0047518Y0101351D01*
X0047348Y0101315D01*
X0047177Y0101283D01*
X0047005Y0101256D01*
X0046833Y0101232D01*
X0046660Y0101213D01*
X0046486Y0101198D01*
X0046313Y0101188D01*
X0046139Y0101181D01*
X0045965Y0101179D01*
X0045791Y0101181D01*
X0045617Y0101188D01*
X0045444Y0101198D01*
X0045270Y0101213D01*
X0045097Y0101232D01*
X0044925Y0101256D01*
X0044753Y0101283D01*
X0044582Y0101315D01*
X0044412Y0101351D01*
X0044243Y0101391D01*
X0044075Y0101436D01*
X0043908Y0101484D01*
X0043742Y0101537D01*
X0043577Y0101593D01*
X0043414Y0101654D01*
X0043253Y0101718D01*
X0043093Y0101787D01*
X0042935Y0101859D01*
X0042779Y0101936D01*
X0042624Y0102016D01*
X0042472Y0102100D01*
X0042322Y0102187D01*
X0042173Y0102279D01*
X0042028Y0102373D01*
X0041884Y0102472D01*
X0041743Y0102574D01*
X0041605Y0102679D01*
X0041469Y0102788D01*
X0041336Y0102900D01*
X0041206Y0103015D01*
X0041078Y0103133D01*
X0040954Y0103255D01*
X0040832Y0103379D01*
X0040714Y0103507D01*
X0040599Y0103637D01*
X0040487Y0103770D01*
X0040378Y0103906D01*
X0040273Y0104044D01*
X0040171Y0104185D01*
X0040072Y0104329D01*
X0039978Y0104474D01*
X0039886Y0104623D01*
X0039799Y0104773D01*
X0039715Y0104925D01*
X0039635Y0105080D01*
X0039558Y0105236D01*
X0039486Y0105394D01*
X0039417Y0105554D01*
X0039353Y0105715D01*
X0039292Y0105878D01*
X0039236Y0106043D01*
X0039183Y0106209D01*
X0039135Y0106376D01*
X0039090Y0106544D01*
X0039050Y0106713D01*
X0039014Y0106883D01*
X0038982Y0107054D01*
X0038955Y0107226D01*
X0038931Y0107398D01*
X0038912Y0107571D01*
X0038897Y0107745D01*
X0038887Y0107918D01*
X0038880Y0108092D01*
X0038878Y0108266D01*
X0038878Y0153266D02*
X0038880Y0153440D01*
X0038887Y0153614D01*
X0038897Y0153787D01*
X0038912Y0153961D01*
X0038931Y0154134D01*
X0038955Y0154306D01*
X0038982Y0154478D01*
X0039014Y0154649D01*
X0039050Y0154819D01*
X0039090Y0154988D01*
X0039135Y0155156D01*
X0039183Y0155323D01*
X0039236Y0155489D01*
X0039292Y0155654D01*
X0039353Y0155817D01*
X0039417Y0155978D01*
X0039486Y0156138D01*
X0039558Y0156296D01*
X0039635Y0156452D01*
X0039715Y0156607D01*
X0039799Y0156759D01*
X0039886Y0156909D01*
X0039978Y0157058D01*
X0040072Y0157203D01*
X0040171Y0157347D01*
X0040273Y0157488D01*
X0040378Y0157626D01*
X0040487Y0157762D01*
X0040599Y0157895D01*
X0040714Y0158025D01*
X0040832Y0158153D01*
X0040954Y0158277D01*
X0041078Y0158399D01*
X0041206Y0158517D01*
X0041336Y0158632D01*
X0041469Y0158744D01*
X0041605Y0158853D01*
X0041743Y0158958D01*
X0041884Y0159060D01*
X0042028Y0159159D01*
X0042173Y0159253D01*
X0042322Y0159345D01*
X0042472Y0159432D01*
X0042624Y0159516D01*
X0042779Y0159596D01*
X0042935Y0159673D01*
X0043093Y0159745D01*
X0043253Y0159814D01*
X0043414Y0159878D01*
X0043577Y0159939D01*
X0043742Y0159995D01*
X0043908Y0160048D01*
X0044075Y0160096D01*
X0044243Y0160141D01*
X0044412Y0160181D01*
X0044582Y0160217D01*
X0044753Y0160249D01*
X0044925Y0160276D01*
X0045097Y0160300D01*
X0045270Y0160319D01*
X0045444Y0160334D01*
X0045617Y0160344D01*
X0045791Y0160351D01*
X0045965Y0160353D01*
X0046139Y0160351D01*
X0046313Y0160344D01*
X0046486Y0160334D01*
X0046660Y0160319D01*
X0046833Y0160300D01*
X0047005Y0160276D01*
X0047177Y0160249D01*
X0047348Y0160217D01*
X0047518Y0160181D01*
X0047687Y0160141D01*
X0047855Y0160096D01*
X0048022Y0160048D01*
X0048188Y0159995D01*
X0048353Y0159939D01*
X0048516Y0159878D01*
X0048677Y0159814D01*
X0048837Y0159745D01*
X0048995Y0159673D01*
X0049151Y0159596D01*
X0049306Y0159516D01*
X0049458Y0159432D01*
X0049608Y0159345D01*
X0049757Y0159253D01*
X0049902Y0159159D01*
X0050046Y0159060D01*
X0050187Y0158958D01*
X0050325Y0158853D01*
X0050461Y0158744D01*
X0050594Y0158632D01*
X0050724Y0158517D01*
X0050852Y0158399D01*
X0050976Y0158277D01*
X0051098Y0158153D01*
X0051216Y0158025D01*
X0051331Y0157895D01*
X0051443Y0157762D01*
X0051552Y0157626D01*
X0051657Y0157488D01*
X0051759Y0157347D01*
X0051858Y0157203D01*
X0051952Y0157058D01*
X0052044Y0156909D01*
X0052131Y0156759D01*
X0052215Y0156607D01*
X0052295Y0156452D01*
X0052372Y0156296D01*
X0052444Y0156138D01*
X0052513Y0155978D01*
X0052577Y0155817D01*
X0052638Y0155654D01*
X0052694Y0155489D01*
X0052747Y0155323D01*
X0052795Y0155156D01*
X0052840Y0154988D01*
X0052880Y0154819D01*
X0052916Y0154649D01*
X0052948Y0154478D01*
X0052975Y0154306D01*
X0052999Y0154134D01*
X0053018Y0153961D01*
X0053033Y0153787D01*
X0053043Y0153614D01*
X0053050Y0153440D01*
X0053052Y0153266D01*
X0053050Y0153092D01*
X0053043Y0152918D01*
X0053033Y0152745D01*
X0053018Y0152571D01*
X0052999Y0152398D01*
X0052975Y0152226D01*
X0052948Y0152054D01*
X0052916Y0151883D01*
X0052880Y0151713D01*
X0052840Y0151544D01*
X0052795Y0151376D01*
X0052747Y0151209D01*
X0052694Y0151043D01*
X0052638Y0150878D01*
X0052577Y0150715D01*
X0052513Y0150554D01*
X0052444Y0150394D01*
X0052372Y0150236D01*
X0052295Y0150080D01*
X0052215Y0149925D01*
X0052131Y0149773D01*
X0052044Y0149623D01*
X0051952Y0149474D01*
X0051858Y0149329D01*
X0051759Y0149185D01*
X0051657Y0149044D01*
X0051552Y0148906D01*
X0051443Y0148770D01*
X0051331Y0148637D01*
X0051216Y0148507D01*
X0051098Y0148379D01*
X0050976Y0148255D01*
X0050852Y0148133D01*
X0050724Y0148015D01*
X0050594Y0147900D01*
X0050461Y0147788D01*
X0050325Y0147679D01*
X0050187Y0147574D01*
X0050046Y0147472D01*
X0049902Y0147373D01*
X0049757Y0147279D01*
X0049608Y0147187D01*
X0049458Y0147100D01*
X0049306Y0147016D01*
X0049151Y0146936D01*
X0048995Y0146859D01*
X0048837Y0146787D01*
X0048677Y0146718D01*
X0048516Y0146654D01*
X0048353Y0146593D01*
X0048188Y0146537D01*
X0048022Y0146484D01*
X0047855Y0146436D01*
X0047687Y0146391D01*
X0047518Y0146351D01*
X0047348Y0146315D01*
X0047177Y0146283D01*
X0047005Y0146256D01*
X0046833Y0146232D01*
X0046660Y0146213D01*
X0046486Y0146198D01*
X0046313Y0146188D01*
X0046139Y0146181D01*
X0045965Y0146179D01*
X0045791Y0146181D01*
X0045617Y0146188D01*
X0045444Y0146198D01*
X0045270Y0146213D01*
X0045097Y0146232D01*
X0044925Y0146256D01*
X0044753Y0146283D01*
X0044582Y0146315D01*
X0044412Y0146351D01*
X0044243Y0146391D01*
X0044075Y0146436D01*
X0043908Y0146484D01*
X0043742Y0146537D01*
X0043577Y0146593D01*
X0043414Y0146654D01*
X0043253Y0146718D01*
X0043093Y0146787D01*
X0042935Y0146859D01*
X0042779Y0146936D01*
X0042624Y0147016D01*
X0042472Y0147100D01*
X0042322Y0147187D01*
X0042173Y0147279D01*
X0042028Y0147373D01*
X0041884Y0147472D01*
X0041743Y0147574D01*
X0041605Y0147679D01*
X0041469Y0147788D01*
X0041336Y0147900D01*
X0041206Y0148015D01*
X0041078Y0148133D01*
X0040954Y0148255D01*
X0040832Y0148379D01*
X0040714Y0148507D01*
X0040599Y0148637D01*
X0040487Y0148770D01*
X0040378Y0148906D01*
X0040273Y0149044D01*
X0040171Y0149185D01*
X0040072Y0149329D01*
X0039978Y0149474D01*
X0039886Y0149623D01*
X0039799Y0149773D01*
X0039715Y0149925D01*
X0039635Y0150080D01*
X0039558Y0150236D01*
X0039486Y0150394D01*
X0039417Y0150554D01*
X0039353Y0150715D01*
X0039292Y0150878D01*
X0039236Y0151043D01*
X0039183Y0151209D01*
X0039135Y0151376D01*
X0039090Y0151544D01*
X0039050Y0151713D01*
X0039014Y0151883D01*
X0038982Y0152054D01*
X0038955Y0152226D01*
X0038931Y0152398D01*
X0038912Y0152571D01*
X0038897Y0152745D01*
X0038887Y0152918D01*
X0038880Y0153092D01*
X0038878Y0153266D01*
D14*
X0224834Y0046888D02*
X0224834Y0040888D01*
X0224836Y0040828D01*
X0224841Y0040767D01*
X0224850Y0040708D01*
X0224863Y0040649D01*
X0224879Y0040590D01*
X0224899Y0040533D01*
X0224922Y0040478D01*
X0224949Y0040423D01*
X0224978Y0040371D01*
X0225011Y0040320D01*
X0225047Y0040271D01*
X0225085Y0040225D01*
X0225127Y0040181D01*
X0225171Y0040139D01*
X0225217Y0040101D01*
X0225266Y0040065D01*
X0225317Y0040032D01*
X0225369Y0040003D01*
X0225424Y0039976D01*
X0225479Y0039953D01*
X0225536Y0039933D01*
X0225595Y0039917D01*
X0225654Y0039904D01*
X0225713Y0039895D01*
X0225774Y0039890D01*
X0225834Y0039888D01*
X0242834Y0039888D01*
X0242894Y0039890D01*
X0242955Y0039895D01*
X0243014Y0039904D01*
X0243073Y0039917D01*
X0243132Y0039933D01*
X0243189Y0039953D01*
X0243244Y0039976D01*
X0243299Y0040003D01*
X0243351Y0040032D01*
X0243402Y0040065D01*
X0243451Y0040101D01*
X0243497Y0040139D01*
X0243541Y0040181D01*
X0243583Y0040225D01*
X0243621Y0040271D01*
X0243657Y0040320D01*
X0243690Y0040371D01*
X0243719Y0040423D01*
X0243746Y0040478D01*
X0243769Y0040533D01*
X0243789Y0040590D01*
X0243805Y0040649D01*
X0243818Y0040708D01*
X0243827Y0040767D01*
X0243832Y0040828D01*
X0243834Y0040888D01*
X0243834Y0046888D01*
X0243832Y0046948D01*
X0243827Y0047009D01*
X0243818Y0047068D01*
X0243805Y0047127D01*
X0243789Y0047186D01*
X0243769Y0047243D01*
X0243746Y0047298D01*
X0243719Y0047353D01*
X0243690Y0047405D01*
X0243657Y0047456D01*
X0243621Y0047505D01*
X0243583Y0047551D01*
X0243541Y0047595D01*
X0243497Y0047637D01*
X0243451Y0047675D01*
X0243402Y0047711D01*
X0243351Y0047744D01*
X0243299Y0047773D01*
X0243244Y0047800D01*
X0243189Y0047823D01*
X0243132Y0047843D01*
X0243073Y0047859D01*
X0243014Y0047872D01*
X0242955Y0047881D01*
X0242894Y0047886D01*
X0242834Y0047888D01*
X0225834Y0047888D01*
X0225774Y0047886D01*
X0225713Y0047881D01*
X0225654Y0047872D01*
X0225595Y0047859D01*
X0225536Y0047843D01*
X0225479Y0047823D01*
X0225424Y0047800D01*
X0225369Y0047773D01*
X0225317Y0047744D01*
X0225266Y0047711D01*
X0225217Y0047675D01*
X0225171Y0047637D01*
X0225127Y0047595D01*
X0225085Y0047551D01*
X0225047Y0047505D01*
X0225011Y0047456D01*
X0224978Y0047405D01*
X0224949Y0047353D01*
X0224922Y0047298D01*
X0224899Y0047243D01*
X0224879Y0047186D01*
X0224863Y0047127D01*
X0224850Y0047068D01*
X0224841Y0047009D01*
X0224836Y0046948D01*
X0224834Y0046888D01*
X0245061Y0047671D02*
X0245061Y0041671D01*
X0245063Y0041611D01*
X0245068Y0041550D01*
X0245077Y0041491D01*
X0245090Y0041432D01*
X0245106Y0041373D01*
X0245126Y0041316D01*
X0245149Y0041261D01*
X0245176Y0041206D01*
X0245205Y0041154D01*
X0245238Y0041103D01*
X0245274Y0041054D01*
X0245312Y0041008D01*
X0245354Y0040964D01*
X0245398Y0040922D01*
X0245444Y0040884D01*
X0245493Y0040848D01*
X0245544Y0040815D01*
X0245596Y0040786D01*
X0245651Y0040759D01*
X0245706Y0040736D01*
X0245763Y0040716D01*
X0245822Y0040700D01*
X0245881Y0040687D01*
X0245940Y0040678D01*
X0246001Y0040673D01*
X0246061Y0040671D01*
X0263061Y0040671D01*
X0263121Y0040673D01*
X0263182Y0040678D01*
X0263241Y0040687D01*
X0263300Y0040700D01*
X0263359Y0040716D01*
X0263416Y0040736D01*
X0263471Y0040759D01*
X0263526Y0040786D01*
X0263578Y0040815D01*
X0263629Y0040848D01*
X0263678Y0040884D01*
X0263724Y0040922D01*
X0263768Y0040964D01*
X0263810Y0041008D01*
X0263848Y0041054D01*
X0263884Y0041103D01*
X0263917Y0041154D01*
X0263946Y0041206D01*
X0263973Y0041261D01*
X0263996Y0041316D01*
X0264016Y0041373D01*
X0264032Y0041432D01*
X0264045Y0041491D01*
X0264054Y0041550D01*
X0264059Y0041611D01*
X0264061Y0041671D01*
X0264061Y0047671D01*
X0264059Y0047731D01*
X0264054Y0047792D01*
X0264045Y0047851D01*
X0264032Y0047910D01*
X0264016Y0047969D01*
X0263996Y0048026D01*
X0263973Y0048081D01*
X0263946Y0048136D01*
X0263917Y0048188D01*
X0263884Y0048239D01*
X0263848Y0048288D01*
X0263810Y0048334D01*
X0263768Y0048378D01*
X0263724Y0048420D01*
X0263678Y0048458D01*
X0263629Y0048494D01*
X0263578Y0048527D01*
X0263526Y0048556D01*
X0263471Y0048583D01*
X0263416Y0048606D01*
X0263359Y0048626D01*
X0263300Y0048642D01*
X0263241Y0048655D01*
X0263182Y0048664D01*
X0263121Y0048669D01*
X0263061Y0048671D01*
X0246061Y0048671D01*
X0246001Y0048669D01*
X0245940Y0048664D01*
X0245881Y0048655D01*
X0245822Y0048642D01*
X0245763Y0048626D01*
X0245706Y0048606D01*
X0245651Y0048583D01*
X0245596Y0048556D01*
X0245544Y0048527D01*
X0245493Y0048494D01*
X0245444Y0048458D01*
X0245398Y0048420D01*
X0245354Y0048378D01*
X0245312Y0048334D01*
X0245274Y0048288D01*
X0245238Y0048239D01*
X0245205Y0048188D01*
X0245176Y0048136D01*
X0245149Y0048081D01*
X0245126Y0048026D01*
X0245106Y0047969D01*
X0245090Y0047910D01*
X0245077Y0047851D01*
X0245068Y0047792D01*
X0245063Y0047731D01*
X0245061Y0047671D01*
D15*
X0352400Y0250110D02*
X0357400Y0255110D01*
X0352400Y0260110D01*
X0352400Y0255110D02*
X0332400Y0255110D01*
M02*
